<?xml version="1.0" encoding="UTF-8"?>
<svg width="31px" height="32px" viewBox="0 0 31 32" version="1.1" xmlns="http://www.w3.org/2000/svg" xmlns:xlink="http://www.w3.org/1999/xlink">
    <!-- Generator: Sketch 49.3 (51167) - http://www.bohemiancoding.com/sketch -->
    <title>Page 1</title>
    <desc>Created with Sketch.</desc>
    <defs></defs>
    <g id="Page-1" stroke="none" stroke-width="1" fill="none" fill-rule="evenodd" stroke-linecap="round" stroke-linejoin="round">
        <g id="Apple-TV-Copy" transform="translate(-405.000000, -458.000000)" stroke="#51A0F2" stroke-width="1.5">
            <g id="Page-1" transform="translate(405.000000, 459.000000)">
                <path d="M21.5571818,28.3268182 C19.5844545,29.2831818 17.4199091,29.7777273 15.2271818,29.7731818 C7.20627273,29.7731818 0.681727273,23.2477273 0.681727273,15.2277273 C0.681727273,7.20681818 7.20627273,0.682272727 15.2271818,0.682272727 C23.2480909,0.682272727 29.7726364,7.20681818 29.7726364,15.2277273 C29.7726364,17.9413636 29.0199091,20.5895455 27.599,22.8786364" id="Stroke-1"></path>
                <path d="M7.69881818,9.64072727 L23.0033636,9.64072727" id="Stroke-3"></path>
                <path d="M15.3533636,6.22272727 L15.3533636,12.1309091" id="Stroke-5"></path>
                <path d="M9.37145455,12.4185455 L20.0787273,12.4185455 C20.0787273,12.4185455 18.1023636,16.2076364 17.4432727,17.2785455 C16.7841818,18.3485455 13.7778182,22.4267273 10.1541818,21.6030909 C6.52963636,20.7785455 7.18872727,15.7549091 10.1950909,15.4258182 C13.2014545,15.0958182 16.2078182,16.4958182 19.8314545,18.4312727 C23.456,20.3667273 27.5987273,22.8785455 27.5987273,22.8785455" id="Stroke-7"></path>
            </g>
        </g>
    </g>
</svg>