<?xml version="1.0" encoding="UTF-8"?>
<svg width="31px" height="31px" viewBox="0 0 31 31" version="1.1" xmlns="http://www.w3.org/2000/svg" xmlns:xlink="http://www.w3.org/1999/xlink">
    <!-- Generator: Sketch 49.3 (51167) - http://www.bohemiancoding.com/sketch -->
    <title>Page 1</title>
    <desc>Created with Sketch.</desc>
    <defs>
        <polygon id="path-1" points="0 0.890778414 30.5 0.890778414 30.5 9 0 9"></polygon>
    </defs>
    <g id="Page-1" stroke="none" stroke-width="1" fill="none" fill-rule="evenodd">
        <g id="Apple-TV-Copy" transform="translate(-574.000000, -711.000000)">
            <g id="Page-1" transform="translate(574.000000, 711.000000)">
                <path d="M15.288,1.5 C10.371,1.5 6.371,5.5 6.371,10.416 C6.371,15.333 10.371,19.333 15.288,19.333 C20.204,19.333 24.204,15.333 24.204,10.416 C24.204,5.5 20.204,1.5 15.288,1.5 M15.288,20.833 C9.544,20.833 4.871,16.16 4.871,10.416 C4.871,4.673 9.544,0 15.288,0 C21.031,0 25.704,4.673 25.704,10.416 C25.704,16.16 21.031,20.833 15.288,20.833" id="Fill-1" fill="#51A0F2"></path>
                <g id="Group-5" transform="translate(0.000000, 21.443600)">
                    <mask id="mask-2" fill="white">
                        <use xlink:href="#path-1"></use>
                    </mask>
                    <g id="Clip-4"></g>
                    <path d="M29.7509,8.9998 C29.5289,8.9998 29.3109,8.9028 29.1629,8.7168 C26.8299,5.7808 24.0419,3.6228 21.0819,2.4568 L15.6159,5.1138 C15.4119,5.2128 15.1729,5.2148 14.9649,5.1158 L9.4379,2.4778 C6.4039,3.6798 3.6089,5.8298 1.3389,8.7138 C1.0839,9.0398 0.6129,9.0958 0.2859,8.8388 C-0.0391,8.5828 -0.0961,8.1108 0.1609,7.7858 C2.6739,4.5938 5.8029,2.2318 9.2069,0.9588 C9.3979,0.8868 9.6089,0.8958 9.7929,0.9838 L15.2849,3.6068 L20.7179,0.9658 C20.9009,0.8768 21.1129,0.8668 21.3069,0.9368 C24.6339,2.1688 27.7569,4.5358 30.3369,7.7828 C30.5949,8.1068 30.5409,8.5788 30.2169,8.8368 C30.0789,8.9468 29.9139,8.9998 29.7509,8.9998" id="Fill-3" fill="#51A0F2" mask="url(#mask-2)"></path>
                </g>
            </g>
        </g>
    </g>
</svg>