<?xml version="1.0" encoding="UTF-8"?>
<svg width="32px" height="32px" viewBox="0 0 32 32" version="1.1" xmlns="http://www.w3.org/2000/svg" xmlns:xlink="http://www.w3.org/1999/xlink">
    <!-- Generator: Sketch 49.3 (51167) - http://www.bohemiancoding.com/sketch -->
    <title>Page 1</title>
    <desc>Created with Sketch.</desc>
    <defs></defs>
    <g id="Page-1" stroke="none" stroke-width="1" fill="none" fill-rule="evenodd" stroke-linecap="round" stroke-linejoin="round">
        <g id="Apple-TV-Copy" transform="translate(-314.000000, -504.000000)" stroke="#51A0F2" stroke-width="1.5">
            <g id="Page-1" transform="translate(315.000000, 505.000000)">
                <path d="M14.3234545,29.715 C10.2816364,29.715 5.95618182,28.6513636 3.12072727,25.745 C0.568,23.0504545 -0.0701818182,19.0086364 1.63163636,15.5340909 C3.54618182,11.5631818 7.58709091,8.08954545 11.8425455,6.59954545 C12.6216364,6.31681818 13.3307273,6.17409091 13.9689091,6.10318182 C14.678,6.03227273 15.1743636,6.10318182 15.6707273,6.24590909 C16.0961818,6.38772727 16.4507273,6.59954545 16.8052727,6.88409091 C17.1598182,7.16681818 17.3725455,7.52227273 17.5143636,7.94772727 C17.6561818,8.30136364 17.7270909,8.65681818 17.798,8.93954545 C17.8689091,9.22318182 17.8689091,9.57863636 17.8689091,9.86136364 L17.8689091,10.0031818 C17.8689091,10.1459091 17.798,10.2877273 17.7270909,10.4995455 C17.7270909,10.6422727 17.6561818,10.7131818 17.6561818,10.7840909 C17.7270909,10.7840909 17.798,10.7131818 17.8689091,10.7131818 L18.2943636,10.4995455 C18.6489091,10.3577273 19.1452727,10.2168182 19.6416364,10.075 C20.138,9.93227273 20.7052727,9.79045455 21.2725455,9.72045455 C21.9107273,9.64954545 22.548,9.64954545 23.1870909,9.72045455 C23.8952727,9.86136364 24.4625455,10.1459091 24.888,10.5704545 C25.1725455,10.8540909 25.3843636,11.1377273 25.5261818,11.4213636 C25.668,11.705 25.7389091,11.9886364 25.8098182,12.2722727 C25.8807273,12.5559091 25.8807273,12.8404545 25.8098182,13.1231818 C25.8098182,13.4077273 25.7389091,13.6195455 25.668,13.8322727 L25.4561818,14.4704545 C25.3843636,14.6122727 25.3134545,14.7540909 25.3134545,14.825 L25.3843636,14.825 C25.7389091,14.8959091 26.0934545,14.9668182 26.5898182,15.1795455 C27.0152727,15.3922727 27.5116364,15.6759091 28.008,16.1013636 C28.5043636,16.5268182 28.9298182,17.0231818 29.2134545,17.5904545 C29.568,18.1577273 29.7098182,18.9377273 29.7098182,19.8595455 C29.7098182,20.7104545 29.4261818,21.6313636 29.0007273,22.6240909 C28.2207273,24.1840909 26.9443636,25.6031818 25.1725455,26.7377273 C23.3989091,27.8722727 21.4852727,28.6513636 19.4289091,29.0768182 C17.9398182,29.5031818 16.1670909,29.715 14.3234545,29.715 Z" id="Stroke-1"></path>
                <path d="M13.8271818,27.3047273 C8.79263636,27.3047273 4.75172727,24.3974545 4.75172727,20.7810909 C4.75172727,17.1656364 8.86445455,14.2574545 13.8271818,14.2574545 C18.7899091,14.2574545 22.9026364,17.1656364 22.9026364,20.7810909 C22.9026364,24.3974545 18.8617273,27.3047273 13.8271818,27.3047273 Z" id="Stroke-3"></path>
                <path d="M13.8271818,23.2626364 C12.4799091,23.2626364 11.4162727,22.199 11.4162727,20.8526364 C11.4162727,19.5044545 12.4799091,18.4408182 13.8271818,18.4408182 C15.1744545,18.4408182 16.2380909,19.5044545 16.2380909,20.8526364 C16.2380909,22.199 15.1744545,23.2626364 13.8271818,23.2626364 Z" id="Stroke-5"></path>
                <path d="M19.074,6.38763636 C21.414,4.75672727 24.6049091,5.324 26.2358182,7.66309091" id="Stroke-7"></path>
                <path d="M16.8762727,2.34554545 C21.0599091,-0.560818182 26.8026364,0.431909091 29.7099091,4.61463636" id="Stroke-9"></path>
            </g>
        </g>
    </g>
</svg>