<?xml version="1.0" encoding="UTF-8"?>
<svg width="32px" height="31px" viewBox="0 0 32 31" version="1.1" xmlns="http://www.w3.org/2000/svg" xmlns:xlink="http://www.w3.org/1999/xlink">
    <!-- Generator: Sketch 49.3 (51167) - http://www.bohemiancoding.com/sketch -->
    <title>Page 1</title>
    <desc>Created with Sketch.</desc>
    <defs>
        <polygon id="path-1" points="0 0.0006 31.4998234 0.0006 31.4998234 30.75 0 30.75"></polygon>
    </defs>
    <g id="Page-1" stroke="none" stroke-width="1" fill="none" fill-rule="evenodd">
        <g id="Apple-TV-Copy" transform="translate(-626.000000, -605.000000)">
            <g id="Page-1" transform="translate(626.000000, 605.000000)">
                <mask id="mask-2" fill="white">
                    <use xlink:href="#path-1"></use>
                </mask>
                <g id="Clip-2"></g>
                <path d="M17.9976,28.7036 C17.9786,28.7136 16.1436,29.6346 14.7256,29.0646 C14.3676,28.9206 13.9706,28.7526 13.5526,28.5756 C12.3736,28.0776 11.0926,27.5406 9.9726,27.2056 L5.9146,19.3666 C5.7576,19.0396 5.8566,18.6306 6.1096,18.4576 L15.0006,13.0536 L15.0006,22.0666 C15.0006,22.4806 15.3366,22.8166 15.7506,22.8166 C16.1646,22.8166 16.5006,22.4806 16.5006,22.0666 L16.5006,13.1266 L25.2386,18.4366 C25.5236,18.6306 25.6236,19.0396 25.4766,19.3466 L21.4506,27.1236 C19.9176,27.5936 18.2116,28.5746 17.9976,28.7036 Z M7.9056,9.4276 C7.9056,9.2856 8.0056,9.1606 8.1196,9.1606 L23.2606,9.1606 C23.3746,9.1606 23.4746,9.2856 23.4746,9.4276 L23.4746,15.6096 L15.6896,10.8786 L7.9056,15.6106 L7.9056,9.4276 Z M12.2436,5.2616 C12.2436,5.1196 12.3436,4.9946 12.4576,4.9946 L18.9236,4.9946 C19.0376,4.9946 19.1376,5.1196 19.1376,5.2616 L19.1376,7.6606 L12.2436,7.6606 L12.2436,5.2616 Z M30.7326,29.2496 C30.0476,29.2656 28.7216,29.1446 28.1696,28.7566 C27.1466,28.0376 24.8946,27.0636 23.2516,26.9076 L26.8196,20.0156 C27.2966,19.0176 26.9796,17.8076 26.0506,17.1766 L24.9746,16.5216 L24.9746,9.4276 C24.9746,8.4536 24.2056,7.6606 23.2606,7.6606 L20.6376,7.6606 L20.6376,5.2616 C20.6376,4.2876 19.8686,3.4946 18.9236,3.4946 L16.7506,3.4946 L16.7506,1.0006 C16.7506,0.4476 16.3036,0.0006 15.7506,0.0006 C15.1976,0.0006 14.7506,0.4476 14.7506,1.0006 L14.7506,3.4946 L12.4576,3.4946 C11.5126,3.4946 10.7436,4.2876 10.7436,5.2616 L10.7436,7.6606 L8.1196,7.6606 C7.1746,7.6606 6.4056,8.4536 6.4056,9.4276 L6.4056,16.5226 L5.2986,17.1966 C4.4006,17.8076 4.0846,19.0176 4.5716,20.0356 L8.1246,26.8986 C7.1466,26.9176 6.3266,27.3226 5.4676,27.7696 C4.8876,28.0716 4.2886,28.3846 3.5716,28.6146 C1.8926,29.1566 0.9496,28.9836 0.9136,28.9766 C0.5196,28.8936 0.1156,29.1366 0.0196,29.5376 C-0.0744,29.9406 0.1756,30.3456 0.5786,30.4396 C0.7106,30.4716 1.9266,30.7226 4.0326,30.0426 C4.8686,29.7726 5.5556,29.4156 6.1596,29.0996 C6.9926,28.6656 7.6526,28.3276 8.3586,28.3826 C9.4536,28.4746 11.4026,29.2966 12.9686,29.9576 C13.3946,30.1386 13.8006,30.3086 14.1646,30.4556 C16.2296,31.2886 18.5866,30.0876 18.7216,30.0156 C19.7986,29.3806 21.8606,28.3756 22.8246,28.3756 L22.8336,28.3756 C24.1576,28.3846 26.4036,29.3496 27.3076,29.9836 C28.3166,30.6936 30.0876,30.7506 30.6286,30.7506 C30.6946,30.7506 30.7426,30.7496 30.7686,30.7496 C31.1826,30.7396 31.5096,30.3956 31.4996,29.9816 C31.4906,29.5676 31.1486,29.2606 30.7326,29.2496 Z" id="Fill-1" fill="#51A0F2" mask="url(#mask-2)"></path>
            </g>
        </g>
    </g>
</svg>