<?xml version="1.0" encoding="UTF-8"?>
<svg width="30px" height="30px" viewBox="0 0 30 30" version="1.1" xmlns="http://www.w3.org/2000/svg" xmlns:xlink="http://www.w3.org/1999/xlink">
    <!-- Generator: Sketch 49.3 (51167) - http://www.bohemiancoding.com/sketch -->
    <title>Page 1</title>
    <desc>Created with Sketch.</desc>
    <defs>
        <polygon id="path-1" points="0 0.1381 29.577 0.1381 29.577 30 0 30"></polygon>
    </defs>
    <g id="Page-1" stroke="none" stroke-width="1" fill="none" fill-rule="evenodd">
        <g id="Apple-TV-Copy" transform="translate(-572.000000, -606.000000)">
            <g id="Page-1" transform="translate(572.000000, 605.000000)">
                <g id="Group-3" transform="translate(0.000000, 0.862300)">
                    <mask id="mask-2" fill="white">
                        <use xlink:href="#path-1"></use>
                    </mask>
                    <g id="Clip-2"></g>
                    <path d="M27.585,15.1611 L26.085,15.1611 L26.085,26.1381 L3.489,26.1381 L3.489,15.1611 L1.989,15.1611 L1.989,10.5321 L1.999,10.5321 L3.489,10.5321 L3.489,1.6381 L26.085,1.6381 L26.085,10.5291 L27.585,10.5291 L27.585,15.1611 Z M24.208,28.4591 C24.153,28.4791 24.07,28.5001 23.958,28.5001 L21.468,28.5001 C21.356,28.5001 21.273,28.4791 21.218,28.4591 L21.218,27.6381 L24.208,27.6381 L24.208,28.4591 Z M8.484,28.4591 C8.43,28.4791 8.347,28.5001 8.234,28.5001 L5.741,28.5001 C5.63,28.5001 5.546,28.4791 5.491,28.4591 L5.491,27.6381 L8.484,27.6381 L8.484,28.4591 Z M29.21,9.6381 C28.974,9.3991 28.647,9.2631 28.311,9.2631 L27.585,9.2631 L27.585,1.4051 C27.585,1.0671 27.453,0.7491 27.217,0.5131 C26.981,0.2741 26.653,0.1381 26.318,0.1381 L3.256,0.1381 C2.558,0.1381 1.989,0.7061 1.989,1.4051 L1.989,9.2651 L1.267,9.2651 C0.568,9.2651 0,9.8341 0,10.5321 L0,15.1611 C0,15.8591 0.568,16.4281 1.267,16.4281 L1.989,16.4281 L1.989,26.3711 C1.989,27.0691 2.558,27.6381 3.256,27.6381 L3.991,27.6381 L3.991,28.6251 C3.991,29.3961 4.76,30.0001 5.741,30.0001 L8.234,30.0001 C9.216,30.0001 9.984,29.3961 9.984,28.6251 L9.984,27.6381 L19.718,27.6381 L19.718,28.6251 C19.718,29.3961 20.486,30.0001 21.468,30.0001 L23.958,30.0001 C24.939,30.0001 25.708,29.3961 25.708,28.6251 L25.708,27.6381 L26.318,27.6381 C26.654,27.6381 26.981,27.5021 27.214,27.2661 C27.453,27.0271 27.585,26.7091 27.585,26.3711 L27.585,16.4281 L28.311,16.4281 C28.648,16.4281 28.967,16.2961 29.206,16.0571 C29.445,15.8171 29.577,15.4991 29.577,15.1611 L29.577,10.5371 C29.579,10.1961 29.448,9.8761 29.21,9.6381 Z" id="Fill-1" fill="#51A0F2" mask="url(#mask-2)"></path>
                </g>
                <path d="M8.4277,23.7324 C8.0407,23.9474 7.5617,23.9474 7.1727,23.7324 C6.8007,23.5264 6.5697,23.1484 6.5697,22.7474 C6.5697,22.3454 6.8007,21.9674 7.1727,21.7614 C7.3657,21.6554 7.5837,21.6014 7.8007,21.6014 C8.0177,21.6014 8.2357,21.6554 8.4287,21.7614 C8.8007,21.9674 9.0317,22.3454 9.0317,22.7474 C9.0317,23.1484 8.8007,23.5264 8.4277,23.7324 M9.1537,20.4494 C8.3197,19.9884 7.2817,19.9884 6.4487,20.4494 C5.5977,20.9194 5.0697,21.7994 5.0697,22.7474 C5.0697,23.6944 5.5977,24.5754 6.4477,25.0444 C6.8657,25.2764 7.3327,25.3914 7.8007,25.3914 C8.2687,25.3914 8.7367,25.2764 9.1537,25.0444 C10.0037,24.5754 10.5317,23.6944 10.5317,22.7474 C10.5317,21.7994 10.0037,20.9194 9.1537,20.4494" id="Fill-4" fill="#51A0F2"></path>
                <path d="M22.9775,23.7324 C22.5895,23.9444 22.1095,23.9454 21.7215,23.7324 C21.3495,23.5264 21.1185,23.1484 21.1185,22.7474 C21.1185,22.3454 21.3495,21.9674 21.7205,21.7624 C21.9145,21.6554 22.1315,21.6014 22.3495,21.6014 C22.5665,21.6014 22.7845,21.6554 22.9775,21.7614 C23.3495,21.9674 23.5815,22.3454 23.5815,22.7474 C23.5815,23.1484 23.3495,23.5264 22.9775,23.7324 M23.7025,20.4484 C22.8685,19.9894 21.8315,19.9884 20.9955,20.4494 C20.1455,20.9194 19.6185,21.7994 19.6185,22.7474 C19.6185,23.6944 20.1455,24.5754 20.9965,25.0444 C21.4135,25.2754 21.8805,25.3904 22.3485,25.3904 C22.8175,25.3904 23.2855,25.2754 23.7025,25.0444 C24.5525,24.5754 25.0815,23.6944 25.0815,22.7474 C25.0815,21.7994 24.5525,20.9194 23.7025,20.4484" id="Fill-6" fill="#51A0F2"></path>
                <path d="M6.0488,4.8115 L23.5278,4.8115 L23.5278,17.1695 L22.4288,17.1695 C22.5598,16.7705 22.6298,16.3505 22.6298,15.9215 C22.6298,14.4365 21.7988,13.0545 20.4628,12.3165 C19.1408,11.5855 17.4998,11.5855 16.1778,12.3165 C14.8408,13.0545 14.0098,14.4365 14.0098,15.9215 C14.0098,16.3475 14.0858,16.7675 14.2178,17.1695 L6.0488,17.1695 L6.0488,4.8115 Z M20.7948,17.1695 L15.8508,17.1695 C15.6328,16.7855 15.5098,16.3585 15.5098,15.9215 C15.5098,14.9825 16.0438,14.1035 16.9028,13.6285 C17.7778,13.1465 18.8618,13.1465 19.7368,13.6285 C20.5958,14.1035 21.1298,14.9825 21.1298,15.9215 C21.1298,16.3625 21.0128,16.7875 20.7948,17.1695 Z M21.1908,18.6695 C21.1938,18.6695 21.1968,18.6715 21.1998,18.6715 C21.2018,18.6715 21.2048,18.6695 21.2068,18.6695 L24.0278,18.6695 C24.5778,18.6695 25.0278,18.2205 25.0278,17.6695 L25.0278,4.3115 C25.0278,3.7605 24.5778,3.3115 24.0278,3.3115 L5.5488,3.3115 C4.9988,3.3115 4.5488,3.7605 4.5488,4.3115 L4.5488,17.6695 C4.5488,18.2205 4.9988,18.6695 5.5488,18.6695 L21.1908,18.6695 Z" id="Fill-8" fill="#51A0F2"></path>
            </g>
        </g>
    </g>
</svg>