<?xml version="1.0" encoding="UTF-8"?>
<svg width="28px" height="32px" viewBox="0 0 28 32" version="1.1" xmlns="http://www.w3.org/2000/svg" xmlns:xlink="http://www.w3.org/1999/xlink">
    <!-- Generator: Sketch 49.3 (51167) - http://www.bohemiancoding.com/sketch -->
    <title>Page 1</title>
    <desc>Created with Sketch.</desc>
    <defs>
        <polygon id="path-1" points="0.0001 0.5001 27.263 0.5001 27.263 32 0.0001 32"></polygon>
    </defs>
    <g id="Page-1" stroke="none" stroke-width="1" fill="none" fill-rule="evenodd">
        <g id="Apple-TV-Copy" transform="translate(-577.000000, -658.000000)">
            <g id="Page-1" transform="translate(577.250000, 657.000000)">
                <g id="Group-3" transform="translate(0.000000, 0.500000)">
                    <mask id="mask-2" fill="white">
                        <use xlink:href="#path-1"></use>
                    </mask>
                    <g id="Clip-2"></g>
                    <path d="M25.7631,29.0241 C25.7631,29.8101 25.0791,30.5001 24.3001,30.5001 L2.9621,30.5001 C2.1841,30.5001 1.5001,29.8101 1.5001,29.0241 L1.5001,6.5451 C1.5001,5.7591 2.1841,5.0691 2.9621,5.0691 L7.9011,5.0691 C7.8961,5.1031 7.8811,5.1331 7.8811,5.1681 L7.8811,9.1801 C7.8811,9.5941 8.2171,9.9301 8.6311,9.9301 L18.6311,9.9301 C19.0451,9.9301 19.3811,9.5941 19.3811,9.1801 L19.3811,5.1681 C19.3811,5.1331 19.3661,5.1031 19.3611,5.0691 L24.2671,5.0691 C25.0291,5.0691 25.7421,5.7511 25.7631,6.4781 L25.7631,29.0241 Z M9.9361,5.0691 C10.2621,5.0691 10.5511,4.8581 10.6501,4.5471 L10.8311,3.9821 C11.2311,2.7781 12.3131,2.0001 13.5901,2.0001 C14.8651,2.0001 15.9221,2.7691 16.3541,4.0171 L16.5551,4.5741 C16.6621,4.8711 16.9441,5.0691 17.2601,5.0691 L17.9011,5.0691 C17.8961,5.1031 17.8811,5.1331 17.8811,5.1681 L17.8811,8.4301 L9.3811,8.4301 L9.3811,5.1681 C9.3811,5.1331 9.3661,5.1031 9.3611,5.0691 L9.9361,5.0691 Z M24.2671,3.5691 L17.7861,3.5691 L17.7681,3.5171 C17.1341,1.6841 15.4941,0.5001 13.5901,0.5001 C11.6561,0.5001 10.0141,1.6811 9.4061,3.5171 L9.3891,3.5691 L2.9621,3.5691 C1.3571,3.5691 0.0001,4.9321 0.0001,6.5451 L0.0001,29.0241 C0.0001,30.6371 1.3571,32.0001 2.9621,32.0001 L24.3001,32.0001 C25.9071,32.0001 27.2631,30.6371 27.2631,29.0241 L27.2631,6.4571 C27.2171,4.8911 25.8451,3.5691 24.2671,3.5691 Z" id="Fill-1" fill="#51A0F2" mask="url(#mask-2)"></path>
                </g>
                <path d="M13.6313,6.6715 C14.3493,6.6715 14.8973,6.1215 14.8973,5.4015 C14.8973,4.6635 14.3673,4.1325 13.6313,4.1325 C12.9133,4.1325 12.3653,4.6815 12.3653,5.4015 C12.3653,6.1215 12.9133,6.6715 13.6313,6.6715" id="Fill-4" fill="#51A0F2"></path>
                <path d="M19.4281,17.6647 L17.3271,19.7387 C17.2781,19.7887 17.2311,19.8417 17.1561,19.8927 C16.8881,20.0817 16.5961,20.4387 16.7181,21.0637 C16.8021,21.5697 16.8871,22.0777 16.9851,22.5697 L17.2361,23.9947 C17.2581,24.1237 17.2791,24.2527 17.2991,24.3827 C17.2561,24.3587 17.2131,24.3367 17.1721,24.3157 C16.8291,24.1327 16.4871,23.9567 16.1491,23.7827 L14.1771,22.7467 C13.9131,22.6107 13.6351,22.6017 13.2821,22.7517 L12.1121,23.3657 C11.6801,23.5917 11.2481,23.8167 10.8171,24.0467 L10.7281,24.0947 C10.5411,24.1927 10.3561,24.2917 10.1691,24.3907 C10.2091,24.1347 10.2571,23.8837 10.3051,23.6317 C10.3571,23.3577 10.4081,23.0837 10.4501,22.8167 C10.4941,22.5617 10.5331,22.3077 10.5741,22.0517 C10.6101,21.8187 10.6461,21.5867 10.6901,21.3247 L10.7251,21.0757 C10.7941,20.8677 10.8521,20.4637 10.4671,20.0837 L9.8131,19.4427 C9.5781,19.2117 9.3441,18.9807 9.1191,18.7647 L7.9661,17.6257 C8.0291,17.6167 8.0921,17.6067 8.1551,17.5997 L9.2431,17.4477 C9.4191,17.4237 9.5951,17.3957 9.7731,17.3677 C9.9671,17.3367 10.1621,17.3057 10.3521,17.2807 C10.5011,17.2637 10.6501,17.2417 10.7991,17.2197 C10.9351,17.1997 11.0711,17.1797 11.2061,17.1637 C11.2261,17.1607 11.3011,17.1527 11.3211,17.1487 C11.3781,17.1437 11.4361,17.1377 11.4911,17.1287 C11.7681,17.0927 12.0081,16.9117 12.1421,16.6357 C12.5311,15.8557 12.9191,15.0767 13.3131,14.2357 C13.4471,13.9607 13.5811,13.6857 13.7161,13.4097 C13.9531,13.9007 14.1961,14.3897 14.4371,14.8767 C14.6991,15.4087 14.9621,15.9397 15.2241,16.4817 C15.4181,16.8737 15.7221,17.0867 16.1331,17.1287 L19.4931,17.6077 C19.4711,17.6257 19.4491,17.6437 19.4281,17.6647 M21.2221,16.3507 C20.8891,16.2997 20.5741,16.2497 20.2561,16.1967 L16.4941,15.6637 C16.2591,15.1787 16.0201,14.6947 15.7811,14.2117 C15.5181,13.6797 15.2551,13.1477 14.9861,12.5927 C14.7971,12.2287 14.6091,11.8517 14.3881,11.4087 C14.2611,11.1547 14.0011,10.9937 13.7171,10.9937 C13.4261,10.9927 13.2301,11.1207 13.0931,11.3277 C13.0641,11.3667 13.0381,11.4087 13.0171,11.4537 L13.0161,11.4537 C12.6541,12.1617 12.3091,12.8717 11.9321,13.6457 C11.6111,14.3327 11.2781,15.0077 10.9401,15.6857 C10.8201,15.6997 10.7001,15.7177 10.5801,15.7347 C10.4471,15.7557 10.3121,15.7747 10.1671,15.7927 C9.9531,15.8197 9.7441,15.8527 9.5381,15.8867 C9.3701,15.9127 9.2041,15.9387 9.0401,15.9617 L7.9511,16.1127 C7.7551,16.1397 7.5531,16.1707 7.3531,16.2017 L6.8621,16.2767 C6.6911,16.2927 6.5211,16.3197 6.3391,16.3517 L6.2371,16.3677 C5.9591,16.4137 5.7311,16.6107 5.6451,16.8787 C5.5591,17.1457 5.6291,17.4387 5.8281,17.6387 L9.2201,20.9627 C9.2151,21.0097 9.2101,21.0557 9.2061,21.1027 C9.1651,21.3427 9.1281,21.5827 9.0911,21.8217 C9.0531,22.0687 9.0151,22.3157 8.9701,22.5747 C8.9291,22.8367 8.8801,23.0947 8.8311,23.3517 C8.7801,23.6237 8.7281,23.8947 8.6861,24.1657 L8.4351,25.6987 C8.3881,25.9897 8.5531,26.2577 8.7991,26.4207 C8.9151,26.4977 9.0571,26.5337 9.1991,26.5337 C9.3591,26.5337 9.5191,26.4897 9.6501,26.4067 C9.7491,26.3477 9.8671,26.2757 9.9901,26.1737 C10.4701,25.9297 10.9511,25.6747 11.4321,25.4187 L11.5221,25.3707 C11.9491,25.1427 12.3781,24.9187 12.8061,24.6957 L13.7301,24.2077 L15.4641,25.1177 C15.7941,25.2877 16.1301,25.4597 16.4811,25.6467 C16.5861,25.6997 16.6881,25.7577 16.7901,25.8137 C16.9151,25.8837 17.0401,25.9537 17.1181,25.9897 C17.3871,26.1507 17.6731,26.2957 17.9581,26.4377 C18.2151,26.5667 18.5211,26.5187 18.7501,26.3417 C18.9791,26.1637 19.0801,25.8527 19.0181,25.5707 C18.9921,25.4557 18.9661,25.3417 18.9491,25.2037 C18.9071,24.9647 18.8701,24.7267 18.8341,24.4877 C18.7951,24.2387 18.7571,23.9897 18.7141,23.7407 L18.4581,22.2927 C18.3731,21.8617 18.3001,21.4307 18.2211,20.9597 C18.2781,20.9087 18.3301,20.8567 18.3821,20.8057 L20.4261,18.7877 C20.4991,18.7337 20.5481,18.6837 20.5711,18.6597 C20.7511,18.4877 20.9271,18.3157 21.1051,18.1417 L21.6271,17.6337 C21.8341,17.4357 21.9111,17.1387 21.8241,16.8657 C21.7391,16.5927 21.5041,16.3927 21.2221,16.3507" id="Fill-6" fill="#51A0F2"></path>
            </g>
        </g>
    </g>
</svg>