<?xml version="1.0" encoding="UTF-8"?>
<svg width="31px" height="32px" viewBox="0 0 31 32" version="1.1" xmlns="http://www.w3.org/2000/svg" xmlns:xlink="http://www.w3.org/1999/xlink">
    <!-- Generator: Sketch 49.3 (51167) - http://www.bohemiancoding.com/sketch -->
    <title>Page 1</title>
    <desc>Created with Sketch.</desc>
    <defs></defs>
    <g id="Page-1" stroke="none" stroke-width="1" fill="none" fill-rule="evenodd">
        <g id="Apple-TV-Copy" transform="translate(-467.000000, -497.000000)" fill="#51A0F2">
            <g id="Page-1" transform="translate(467.000000, 497.000000)">
                <path d="M1.5,30 L14.483,30 L14.483,1.5 L1.5,1.5 L1.5,30 Z M15.233,0 L0.75,0 C0.336,0 0,0.336 0,0.75 L0,30.75 C0,31.164 0.336,31.5 0.75,31.5 L15.233,31.5 C15.647,31.5 15.983,31.164 15.983,30.75 L15.983,0.75 C15.983,0.336 15.647,0 15.233,0 Z" id="Fill-1"></path>
                <path d="M7.19,22.759 L8.794,22.759 L8.794,21.155 L7.19,21.155 L7.19,22.759 Z M6.44,24.259 L9.544,24.259 C9.958,24.259 10.294,23.923 10.294,23.509 L10.294,20.405 C10.294,19.991 9.958,19.655 9.544,19.655 L6.44,19.655 C6.026,19.655 5.69,19.991 5.69,20.405 L5.69,23.509 C5.69,23.923 6.026,24.259 6.44,24.259 Z" id="Fill-3"></path>
                <path d="M7.19,14.483 L8.794,14.483 L8.794,12.879 L7.19,12.879 L7.19,14.483 Z M6.44,15.982 L9.544,15.982 C9.958,15.982 10.294,15.646 10.294,15.232 L10.294,12.129 C10.294,11.715 9.958,11.379 9.544,11.379 L6.44,11.379 C6.026,11.379 5.69,11.715 5.69,12.129 L5.69,15.232 C5.69,15.646 6.026,15.982 6.44,15.982 Z" id="Fill-4"></path>
                <path d="M7.19,7.242 L8.794,7.242 L8.794,5.638 L7.19,5.638 L7.19,7.242 Z M6.44,8.741 L9.544,8.741 C9.958,8.741 10.294,8.405 10.294,7.991 L10.294,4.888 C10.294,4.474 9.958,4.138 9.544,4.138 L6.44,4.138 C6.026,4.138 5.69,4.474 5.69,4.888 L5.69,7.991 C5.69,8.405 6.026,8.741 6.44,8.741 Z" id="Fill-5"></path>
                <path d="M29.3535,30 L26.7155,30 L26.7155,22.475 C26.7155,22.061 26.3795,21.725 25.9655,21.725 L21.8285,21.725 C21.4145,21.725 21.0785,22.061 21.0785,22.475 L21.0785,30 L18.4405,30 L18.4405,14.948 L29.3535,14.948 L29.3535,30 Z M30.1035,13.448 L17.6905,13.448 C17.2765,13.448 16.9405,13.784 16.9405,14.198 L16.9405,30.75 C16.9405,31.164 17.2765,31.5 17.6905,31.5 L21.8285,31.5 C22.2425,31.5 22.5785,31.164 22.5785,30.75 L22.5785,23.225 L25.2155,23.225 L25.2155,30.75 C25.2155,31.164 25.5515,31.5 25.9655,31.5 L30.1035,31.5 C30.5175,31.5 30.8535,31.164 30.8535,30.75 L30.8535,14.198 C30.8535,13.784 30.5175,13.448 30.1035,13.448 Z" id="Fill-6"></path>
                <path d="M17.6904,11.8447 L30.1034,11.8447 C30.5174,11.8447 30.8534,11.5087 30.8534,11.0947 C30.8534,10.6807 30.5174,10.3447 30.1034,10.3447 L17.6904,10.3447 C17.2764,10.3447 16.9404,10.6807 16.9404,11.0947 C16.9404,11.5087 17.2764,11.8447 17.6904,11.8447" id="Fill-7"></path>
            </g>
        </g>
    </g>
</svg>