<?xml version="1.0" encoding="UTF-8"?>
<svg width="32px" height="32px" viewBox="0 0 32 32" version="1.1" xmlns="http://www.w3.org/2000/svg" xmlns:xlink="http://www.w3.org/1999/xlink">
    <!-- Generator: Sketch 49.3 (51167) - http://www.bohemiancoding.com/sketch -->
    <title>Page 1</title>
    <desc>Created with Sketch.</desc>
    <defs>
        <polygon id="path-1" points="0 0.5 8.637 0.5 8.637 9.1377 0 9.1377"></polygon>
        <polygon id="path-3" points="0 0.363 8.6367 0.363 8.6367 9 0 9"></polygon>
        <polygon id="path-5" points="0.863 0.3633 9.5 0.3633 9.5 9 0.863 9"></polygon>
    </defs>
    <g id="Page-1" stroke="none" stroke-width="1" fill="none" fill-rule="evenodd">
        <g id="Apple-TV-Copy" transform="translate(-465.000000, -710.000000)">
            <g id="Page-1" transform="translate(465.000000, 709.000000)">
                <path d="M26.6494,22.3896 L16.8514,27.5216 L16.8514,17.3686 C16.8514,17.2766 16.9024,17.1916 16.9854,17.1486 L26.6494,12.0586 L26.6494,22.3896 Z M16.2864,15.8216 C16.2284,15.8516 16.1834,15.8966 16.1294,15.9326 L6.5404,10.8686 L16.0984,5.6226 L25.7904,10.8146 L16.2864,15.8216 Z M15.3514,17.3686 L15.3514,27.5146 L5.8184,22.3996 L5.8184,12.1846 L15.3714,17.2286 C15.3674,17.2756 15.3514,17.3206 15.3514,17.3686 Z M28.1494,22.7116 L28.1494,10.9556 C28.1494,10.5996 27.9534,10.2716 27.6384,10.1036 L16.5524,4.1646 C16.4104,4.0876 16.2534,4.0496 16.0954,4.0496 C15.9354,4.0496 15.7754,4.0896 15.6294,4.1686 L4.8204,10.1016 C4.5104,10.2716 4.3184,10.5966 4.3184,10.9496 L4.3184,22.7176 C4.3184,23.0746 4.5144,23.4026 4.8294,23.5716 L15.6384,29.3706 C15.7814,29.4476 15.9384,29.4866 16.0954,29.4866 C16.2504,29.4866 16.4044,29.4496 16.5454,29.3756 L27.6304,23.5686 C27.9494,23.4016 28.1494,23.0716 28.1494,22.7116 Z" id="Fill-1" fill="#51A0F2"></path>
                <g id="Group-5" transform="translate(0.000000, 0.500000)">
                    <mask id="mask-2" fill="white">
                        <use xlink:href="#path-1"></use>
                    </mask>
                    <g id="Clip-4"></g>
                    <path d="M0.75,9.1377 C1.164,9.1377 1.5,8.8017 1.5,8.3877 L1.5,5.1207 C1.5,3.4007 2.9,1.9997 4.621,1.9997 L7.887,1.9997 C8.301,1.9997 8.637,1.6637 8.637,1.2497 C8.637,0.8357 8.301,0.4997 7.887,0.4997 L4.621,0.4997 C2.073,0.4997 0,2.5737 0,5.1207 L0,8.3877 C0,8.8017 0.336,9.1377 0.75,9.1377" id="Fill-3" fill="#51A0F2" mask="url(#mask-2)"></path>
                </g>
                <path d="M26.8789,1 L23.6129,1 C23.1989,1 22.8629,1.336 22.8629,1.75 C22.8629,2.164 23.1989,2.5 23.6129,2.5 L26.8789,2.5 C28.5999,2.5 29.9999,3.9 29.9999,5.621 L29.9999,8.888 C29.9999,9.302 30.3359,9.638 30.7499,9.638 C31.1639,9.638 31.4999,9.302 31.4999,8.888 L31.4999,5.621 C31.4999,3.073 29.4269,1 26.8789,1" id="Fill-6" fill="#51A0F2"></path>
                <g id="Group-10" transform="translate(0.000000, 23.500000)">
                    <mask id="mask-4" fill="white">
                        <use xlink:href="#path-3"></use>
                    </mask>
                    <g id="Clip-9"></g>
                    <path d="M7.8867,7.5 L4.6207,7.5 C2.9007,7.5 1.4997,6.101 1.4997,4.38 L1.4997,1.113 C1.4997,0.699 1.1637,0.363 0.7497,0.363 C0.3357,0.363 -0.0003,0.699 -0.0003,1.113 L-0.0003,4.38 C-0.0003,6.928 2.0737,9 4.6207,9 L7.8867,9 C8.3007,9 8.6367,8.664 8.6367,8.25 C8.6367,7.836 8.3007,7.5 7.8867,7.5" id="Fill-8" fill="#51A0F2" mask="url(#mask-4)"></path>
                </g>
                <g id="Group-13" transform="translate(22.000000, 23.500000)">
                    <mask id="mask-6" fill="white">
                        <use xlink:href="#path-5"></use>
                    </mask>
                    <g id="Clip-12"></g>
                    <path d="M8.75,0.3633 C8.336,0.3633 8,0.6993 8,1.1133 L8,4.3803 C8,6.1003 6.6,7.5003 4.879,7.5003 L1.613,7.5003 C1.199,7.5003 0.863,7.8363 0.863,8.2503 C0.863,8.6643 1.199,9.0003 1.613,9.0003 L4.879,9.0003 C7.427,9.0003 9.5,6.9273 9.5,4.3803 L9.5,1.1133 C9.5,0.6993 9.164,0.3633 8.75,0.3633" id="Fill-11" fill="#51A0F2" mask="url(#mask-6)"></path>
                </g>
            </g>
        </g>
    </g>
</svg>