<?xml version="1.0" encoding="UTF-8"?>
<svg width="31px" height="32px" viewBox="0 0 31 32" version="1.1" xmlns="http://www.w3.org/2000/svg" xmlns:xlink="http://www.w3.org/1999/xlink">
    <!-- Generator: Sketch 49.3 (51167) - http://www.bohemiancoding.com/sketch -->
    <title>Page 1</title>
    <desc>Created with Sketch.</desc>
    <defs></defs>
    <g id="Page-1" stroke="none" stroke-width="1" fill="none" fill-rule="evenodd">
        <g id="Apple-TV-Copy" transform="translate(-684.000000, -657.000000)" fill="#51A0F2">
            <g id="Page-1" transform="translate(684.000000, 657.000000)">
                <path d="M12.25,28 L2.75,28 C2.061,28 1.5,27.37 1.5,26.596 L1.5,2.904 C1.5,2.13 2.061,1.5 2.75,1.5 L22.75,1.5 C23.439,1.5 24,2.13 24,2.904 L24,12.25 C24,12.664 24.336,13 24.75,13 C25.164,13 25.5,12.664 25.5,12.25 L25.5,2.904 C25.5,1.303 24.267,0 22.75,0 L2.75,0 C1.233,0 0,1.303 0,2.904 L0,26.596 C0,28.197 1.233,29.5 2.75,29.5 L12.25,29.5 C12.664,29.5 13,29.164 13,28.75 C13,28.336 12.664,28 12.25,28" id="Fill-1"></path>
                <path d="M3.75,5.875 C3.336,5.875 3,6.211 3,6.625 C3,7.039 3.336,7.375 3.75,7.375 L17.75,7.375 C18.164,7.375 18.5,7.039 18.5,6.625 C18.5,6.211 18.164,5.875 17.75,5.875 L3.75,5.875 Z" id="Fill-3"></path>
                <path d="M9.75,19.375 C10.164,19.375 10.5,19.039 10.5,18.625 C10.5,18.211 10.164,17.875 9.75,17.875 L3.75,17.875 C3.336,17.875 3,18.211 3,18.625 C3,19.039 3.336,19.375 3.75,19.375 L9.75,19.375 Z" id="Fill-5"></path>
                <path d="M12.75,11.375 L3.75,11.375 C3.336,11.375 3,11.711 3,12.125 C3,12.539 3.336,12.875 3.75,12.875 L12.75,12.875 C13.164,12.875 13.5,12.539 13.5,12.125 C13.5,11.711 13.164,11.375 12.75,11.375" id="Fill-7"></path>
                <path d="M22.25,30 C18.528,30 15.5,26.972 15.5,23.25 C15.5,19.528 18.528,16.5 22.25,16.5 C25.972,16.5 29,19.528 29,23.25 C29,26.972 25.972,30 22.25,30 M22.25,15 C17.701,15 14,18.701 14,23.25 C14,27.799 17.701,31.5 22.25,31.5 C26.799,31.5 30.5,27.799 30.5,23.25 C30.5,18.701 26.799,15 22.25,15" id="Fill-9"></path>
                <path d="M24.75,23 L22.5,23 L22.5,19.75 C22.5,19.336 22.164,19 21.75,19 C21.336,19 21,19.336 21,19.75 L21,24.5 L24.75,24.5 C25.164,24.5 25.5,24.164 25.5,23.75 C25.5,23.336 25.164,23 24.75,23" id="Fill-11"></path>
            </g>
        </g>
    </g>
</svg>