<?xml version="1.0" encoding="UTF-8"?>
<svg width="32px" height="32px" viewBox="0 0 32 32" version="1.1" xmlns="http://www.w3.org/2000/svg" xmlns:xlink="http://www.w3.org/1999/xlink">
    <!-- Generator: Sketch 49.3 (51167) - http://www.bohemiancoding.com/sketch -->
    <title>Page 1</title>
    <desc>Created with Sketch.</desc>
    <defs>
        <polygon id="path-1" points="9.25227685e-05 0.499223327 31.498 0.499223327 31.498 20.5492 9.25227685e-05 20.5492"></polygon>
    </defs>
    <g id="Page-1" stroke="none" stroke-width="1" fill="none" fill-rule="evenodd">
        <g id="Apple-TV-Copy" transform="translate(-466.000000, -605.000000)">
            <g id="Page-1" transform="translate(466.000000, 604.000000)">
                <g id="Group-3" transform="translate(0.000000, 0.500700)">
                    <mask id="mask-2" fill="white">
                        <use xlink:href="#path-1"></use>
                    </mask>
                    <g id="Clip-2"></g>
                    <path d="M28.0306,10.2832 L7.9526,18.9112 L2.0606,13.1062 L4.5426,12.0032 L7.2746,13.6152 C7.4896,13.7402 7.7536,13.7522 7.9766,13.6462 L13.1086,11.2102 C13.3166,11.1112 13.4676,10.9222 13.5186,10.6972 C13.5696,10.4722 13.5136,10.2372 13.3686,10.0582 L7.7416,3.1552 L9.9376,2.1012 L19.0516,7.6232 C19.2566,7.7472 19.5066,7.7652 19.7256,7.6752 L25.9416,5.1162 C26.7376,4.7652 27.6286,4.7342 28.3846,5.0372 C29.0416,5.3022 29.5476,5.7962 29.8076,6.4292 C30.3956,7.8612 29.5946,9.5922 28.0306,10.2832 M31.1946,5.8592 C30.7786,4.8472 29.9786,4.0612 28.9426,3.6452 C27.8146,3.1922 26.4996,3.2282 25.3526,3.7372 L19.5056,6.1432 L10.3686,0.6082 C10.1516,0.4762 9.8836,0.4632 9.6556,0.5742 L6.2346,2.2152 C6.0276,2.3132 5.8776,2.5032 5.8266,2.7262 C5.7766,2.9512 5.8326,3.1862 5.9776,3.3642 L11.6016,10.2642 L7.6936,12.1202 L4.9706,10.5142 C4.7606,10.3922 4.5076,10.3772 4.2856,10.4752 L0.4456,12.1822 C0.2186,12.2832 0.0566,12.4902 0.0116,12.7342 C-0.0314,12.9782 0.0476,13.2282 0.2236,13.4022 L7.2596,20.3332 C7.4026,20.4742 7.5926,20.5492 7.7856,20.5492 C7.8846,20.5492 7.9856,20.5292 8.0816,20.4882 L28.6306,11.6582 C30.9386,10.6372 32.0896,8.0362 31.1946,5.8592" id="Fill-1" fill="#51A0F2" mask="url(#mask-2)"></path>
                </g>
                <path d="M26.0354,15.3797 C25.7234,15.1117 25.2474,15.1457 24.9784,15.4617 C24.7094,15.7757 24.7454,16.2497 25.0604,16.5187 C26.8824,18.0777 27.9274,20.3787 27.9274,22.8307 C27.9274,27.3357 24.4074,31.0007 20.0804,31.0007 C15.7534,31.0007 12.2334,27.3357 12.2334,22.8307 C12.2334,22.3107 12.2814,21.7897 12.3744,21.2817 C12.4494,20.8747 12.1804,20.4837 11.7724,20.4087 C11.3654,20.3287 10.9734,20.6037 10.8994,21.0107 C10.7894,21.6077 10.7334,22.2197 10.7334,22.8307 C10.7334,28.1627 14.9274,32.5007 20.0804,32.5007 C25.2334,32.5007 29.4274,28.1627 29.4274,22.8307 C29.4274,19.9407 28.1904,17.2237 26.0354,15.3797" id="Fill-4" fill="#51A0F2"></path>
                <path d="M19.9183,17.6414 C19.5043,17.6414 19.1683,17.9774 19.1683,18.3914 L19.1683,23.4134 C19.1683,23.8284 19.5043,24.1634 19.9183,24.1634 L24.6303,24.1634 C25.0443,24.1634 25.3803,23.8284 25.3803,23.4134 C25.3803,22.9994 25.0443,22.6634 24.6303,22.6634 L20.6683,22.6634 L20.6683,18.3914 C20.6683,17.9774 20.3323,17.6414 19.9183,17.6414" id="Fill-6" fill="#51A0F2"></path>
            </g>
        </g>
    </g>
</svg>