<?xml version="1.0" encoding="UTF-8"?>
<svg width="28px" height="32px" viewBox="0 0 28 32" version="1.1" xmlns="http://www.w3.org/2000/svg" xmlns:xlink="http://www.w3.org/1999/xlink">
    <!-- Generator: Sketch 49.3 (51167) - http://www.bohemiancoding.com/sketch -->
    <title>Page 1</title>
    <desc>Created with Sketch.</desc>
    <defs></defs>
    <g id="Page-1" stroke="none" stroke-width="1" fill="none" fill-rule="evenodd">
        <g id="Apple-TV-Copy" transform="translate(-524.000000, -497.000000)" fill="#51A0F2">
            <g id="Page-1" transform="translate(524.000000, 497.000000)">
                <path d="M4.1094,1.5 C4.6744,1.5 5.1294,1.984 5.1294,1.985 C5.2684,2.142 5.4684,2.233 5.6784,2.236 C5.8704,2.241 6.0904,2.154 6.2354,2.001 C6.3354,1.896 6.8024,1.5 7.2684,1.5 C7.7534,1.5 8.1714,2.001 8.2014,2.618 C8.2174,2.962 8.1404,3.243 7.9364,3.591 C7.7344,3.935 6.6874,4.757 5.6924,5.435 C4.6924,4.754 3.6404,3.931 3.4394,3.59 C3.2364,3.245 3.1604,2.963 3.1764,2.618 C3.2064,2.001 3.6254,1.5 4.1094,1.5 M5.2844,6.964 C5.4084,7.045 5.5494,7.085 5.6924,7.085 C5.8354,7.085 5.9764,7.045 6.1004,6.964 C6.7054,6.571 8.7164,5.224 9.2294,4.352 C9.4504,3.977 9.7394,3.381 9.6994,2.546 C9.6304,1.118 8.5634,0 7.2684,0 C6.6254,0 6.0764,0.263 5.6964,0.516 C5.3214,0.261 4.7744,0 4.1094,0 C2.8144,0 1.7474,1.118 1.6784,2.546 C1.6384,3.383 1.9264,3.978 2.1484,4.352 C2.6594,5.218 4.6774,6.57 5.2844,6.964" id="Fill-1"></path>
                <path d="M19.5967,20.8408 C20.1487,20.8408 20.5967,20.3928 20.5967,19.8408 C20.5967,19.2878 20.1487,18.8408 19.5967,18.8408 C19.0437,18.8408 18.5967,19.2878 18.5967,19.8408 C18.5967,20.3928 19.0437,20.8408 19.5967,20.8408" id="Fill-3"></path>
                <path d="M23.5137,16.8477 C23.0997,16.8477 22.7637,17.1837 22.7637,17.5977 L22.7637,27.2027 L17.5257,27.2027 L17.5257,24.7497 C17.5257,22.6827 15.8427,20.9997 13.7757,20.9997 C11.7077,20.9997 10.0257,22.6827 10.0257,24.7497 L10.0257,27.2027 L4.7877,27.2027 L4.7877,17.5977 C4.7877,17.1837 4.4517,16.8477 4.0377,16.8477 L2.7007,16.8477 L5.8597,13.9957 L8.0567,12.0147 C8.0577,12.0137 8.0577,12.0137 8.0577,12.0127 L13.7757,6.8537 L24.8507,16.8477 L23.5137,16.8477 Z M17.5257,29.9997 L22.7637,29.9997 L22.7637,28.7027 L17.5257,28.7027 L17.5257,29.9997 Z M4.7877,29.9997 L10.0247,29.9997 L10.0247,28.7027 L4.7877,28.7027 L4.7877,29.9997 Z M4.5737,9.9577 L6.8047,9.9577 L6.8047,11.1227 L4.5737,13.1367 L4.5737,9.9577 Z M27.3037,17.0407 L14.2777,5.2867 C13.9927,5.0297 13.5597,5.0297 13.2727,5.2867 L8.3047,9.7697 L8.3047,9.2077 C8.3047,8.7937 7.9687,8.4577 7.5547,8.4577 L3.8237,8.4577 C3.4097,8.4577 3.0737,8.7937 3.0737,9.2077 L3.0737,14.4907 L0.2467,17.0407 C0.0177,17.2487 -0.0613,17.5767 0.0497,17.8677 C0.1607,18.1567 0.4397,18.3477 0.7497,18.3477 L3.2877,18.3477 L3.2877,30.7497 C3.2877,31.1637 3.6237,31.4997 4.0377,31.4997 L10.7757,31.4997 C11.1897,31.4997 11.5257,31.1637 11.5257,30.7497 L11.5257,24.7497 C11.5257,23.5097 12.5347,22.4997 13.7757,22.4997 C15.0157,22.4997 16.0257,23.5097 16.0257,24.7497 L16.0257,30.7497 C16.0257,31.1637 16.3617,31.4997 16.7757,31.4997 L23.5137,31.4997 C23.9277,31.4997 24.2637,31.1637 24.2637,30.7497 L24.2637,18.3477 L26.8017,18.3477 C27.1127,18.3477 27.3907,18.1567 27.5017,17.8677 C27.6137,17.5767 27.5347,17.2487 27.3037,17.0407 Z" id="Fill-5"></path>
            </g>
        </g>
    </g>
</svg>