<?xml version="1.0" encoding="UTF-8"?>
<svg width="32px" height="31px" viewBox="0 0 32 31" version="1.1" xmlns="http://www.w3.org/2000/svg" xmlns:xlink="http://www.w3.org/1999/xlink">
    <!-- Generator: Sketch 49.3 (51167) - http://www.bohemiancoding.com/sketch -->
    <title>Page 1</title>
    <desc>Created with Sketch.</desc>
    <defs></defs>
    <g id="Page-1" stroke="none" stroke-width="1" fill="none" fill-rule="evenodd">
        <g id="Apple-TV-Copy" transform="translate(-466.000000, -658.000000)" fill="#51A0F2">
            <g id="Page-1" transform="translate(466.000000, 658.000000)">
                <polygon id="Fill-1" points="6.702 20.6435 10.536 20.6435 10.536 19.1225 6.702 19.1225"></polygon>
                <polygon id="Fill-2" points="6.702 23.6845 10.536 23.6845 10.536 22.1635 6.702 22.1635"></polygon>
                <polygon id="Fill-3" points="6.702 26.7265 10.536 26.7265 10.536 25.2055 6.702 25.2055"></polygon>
                <polygon id="Fill-4" points="15.75 11.5855 23.75 11.5855 23.75 10.0645 15.75 10.0645"></polygon>
                <polygon id="Fill-5" points="15.75 14.6265 23.75 14.6265 23.75 13.1055 15.75 13.1055"></polygon>
                <polygon id="Fill-6" points="15.75 17.6685 23.75 17.6685 23.75 16.1475 15.75 16.1475"></polygon>
                <polygon id="Fill-7" points="15.75 20.7095 23.75 20.7095 23.75 19.1885 15.75 19.1885"></polygon>
                <polygon id="Fill-8" points="15.75 23.7505 23.75 23.7505 23.75 22.2295 15.75 22.2295"></polygon>
                <polygon id="Fill-9" points="21.0204 0.0002 21.0204 1.5202 19.4854 1.5202 19.4854 0.0002 17.9534 0.0002 17.9534 1.5202 17.9534 3.0412 17.9534 4.5622 19.4854 4.5622 19.4854 3.0412 21.0204 3.0412 21.0204 4.5622 22.5544 4.5622 22.5544 3.0412 22.5544 1.5202 22.5544 0.0002"></polygon>
                <path d="M13,8.3884 C13,7.7314 13.561,7.1974 14.25,7.1974 L25.25,7.1974 C25.939,7.1974 26.5,7.7314 26.5,8.3884 L26.5,29.2504 L13,29.2504 L13,8.3884 Z M30.75,29.2504 L28,29.2504 L28,8.3884 C28,6.9044 26.767,5.6974 25.25,5.6974 L14.25,5.6974 C12.733,5.6974 11.5,6.9044 11.5,8.3884 L11.5,29.2504 L5,29.2504 L5,17.2894 C5,16.6464 5.561,16.1214 6.25,16.1214 L10.25,16.1214 C10.664,16.1214 11,15.7854 11,15.3714 C11,14.9574 10.664,14.6214 10.25,14.6214 L6.25,14.6214 C4.733,14.6214 3.5,15.8194 3.5,17.2894 L3.5,29.2504 L0.75,29.2504 C0.336,29.2504 0,29.5864 0,30.0004 C0,30.4144 0.336,30.7504 0.75,30.7504 L30.75,30.7504 C31.164,30.7504 31.5,30.4144 31.5,30.0004 C31.5,29.5864 31.164,29.2504 30.75,29.2504 Z" id="Fill-10"></path>
            </g>
        </g>
    </g>
</svg>