<?xml version="1.0" encoding="UTF-8"?>
<svg width="31px" height="32px" viewBox="0 0 31 32" version="1.1" xmlns="http://www.w3.org/2000/svg" xmlns:xlink="http://www.w3.org/1999/xlink">
    <!-- Generator: Sketch 49.3 (51167) - http://www.bohemiancoding.com/sketch -->
    <title>Page 1</title>
    <desc>Created with Sketch.</desc>
    <defs>
        <polygon id="path-1" points="0 0.504387896 30.3578 0.504387896 30.3578 31.9999017 0 31.9999017"></polygon>
    </defs>
    <g id="Page-1" stroke="none" stroke-width="1" fill="none" fill-rule="evenodd">
        <g id="Apple-TV-Copy" transform="translate(-520.000000, -710.000000)">
            <g id="Page-1" transform="translate(520.000000, 709.000000)">
                <g id="Group-3" transform="translate(0.000000, 0.495700)">
                    <mask id="mask-2" fill="white">
                        <use xlink:href="#path-1"></use>
                    </mask>
                    <g id="Clip-2"></g>
                    <path d="M28.8268,18.1279 L10.8188,18.1279 C10.6168,18.1279 10.4228,18.2099 10.2808,18.3559 C10.1398,18.4999 10.0628,18.6959 10.0688,18.8989 C10.1688,22.4379 13.0198,25.2099 16.5618,25.2099 C18.7088,25.2099 20.6668,24.1829 21.8838,22.4399 L27.7138,22.4399 C25.7128,26.7319 21.3588,29.5479 16.5618,29.5479 C11.3288,29.5479 6.8608,26.2549 5.0898,21.6379 C5.1078,21.4129 5.0258,21.1949 4.8628,21.0389 C4.4938,19.9019 4.2858,18.6929 4.2668,17.4399 C4.5798,16.9239 5.7978,15.0559 7.1518,13.4429 C8.7668,11.5219 10.3968,9.8209 10.6428,9.5929 C10.8688,9.4149 10.9768,9.1179 10.9078,8.8299 C10.8268,8.4919 10.5248,8.2539 10.1788,8.2539 C10.1068,8.2539 9.9918,8.2849 9.8438,8.3429 L9.8398,8.3349 C9.8278,8.3409 9.8128,8.3499 9.7968,8.3619 C9.0228,8.6779 7.4448,9.6389 6.2958,10.6509 C6.2088,10.7279 6.1228,10.8049 6.0378,10.8829 C8.2198,7.2749 12.1708,4.9569 16.5618,4.9569 C17.7568,4.9569 18.9088,5.1369 20.0018,5.4559 C20.0898,5.5009 20.1818,5.5269 20.2808,5.5349 C25.2488,7.1149 28.8578,11.7689 28.8578,17.2529 C28.8578,17.5449 28.8478,17.8369 28.8268,18.1279 M4.4728,28.5269 C3.6008,27.7159 3.5798,25.9409 4.3468,23.6419 C5.3798,25.6089 6.8728,27.2969 8.6848,28.5629 C6.7578,29.2479 5.2538,29.2509 4.4728,28.5269 M2.7668,29.5439 C0.9608,27.9059 1.1048,24.2629 3.0318,19.9339 C3.1488,20.5249 3.3108,21.1009 3.5018,21.6629 C1.9138,25.3429 1.8828,28.1659 3.4518,29.6259 C3.9158,30.0569 4.4948,30.3409 5.1738,30.4779 C4.1898,30.4009 3.3708,30.0919 2.7668,29.5439 M26.8688,2.9659 C27.0618,3.1409 27.2328,3.3389 27.3828,3.5599 C25.9008,2.3659 23.4068,2.5239 20.3108,3.9879 C19.6898,3.8129 19.0528,3.6819 18.3998,3.5939 C22.0888,1.7439 25.2258,1.4759 26.8688,2.9659 M22.3638,4.7539 C24.2728,4.0799 25.7538,4.0819 26.5338,4.8089 C27.2218,5.4459 27.3878,6.6719 27.0468,8.3089 C25.7658,6.8109 24.1708,5.5959 22.3638,4.7539 M28.8278,10.9669 C30.1718,6.8709 29.8458,3.6389 27.8768,1.8549 C25.3728,-0.4151 20.7608,0.2049 15.5188,3.5009 C9.6598,3.9409 4.6758,8.0549 3.1988,13.8139 C3.1138,14.1449 3.2648,14.5149 3.5638,14.6809 C3.8338,14.8309 4.0418,14.8309 4.2738,14.6949 C3.7338,15.4419 3.2228,16.2249 2.9708,16.8089 C2.9298,16.8529 2.8838,16.8909 2.8528,16.9449 C-0.5122,22.9619 -0.9312,28.2149 1.7598,30.6549 C2.7508,31.5539 4.0828,32.0009 5.6638,31.9999 C7.4778,31.9999 9.6208,31.4059 11.9468,30.2369 C13.3928,30.7529 14.9418,31.0479 16.5618,31.0479 C22.3538,31.0479 27.5688,27.3899 29.5388,21.9449 C29.6218,21.7159 29.5878,21.4599 29.4478,21.2599 C29.3068,21.0599 29.0778,20.9409 28.8338,20.9409 L21.4768,20.9409 C21.2158,20.9409 20.9728,21.0769 20.8358,21.3019 C19.9218,22.8099 18.3238,23.7099 16.5618,23.7099 C14.1008,23.7099 12.0738,21.9709 11.6488,19.6279 L29.5078,19.6279 C29.8858,19.6279 30.2048,19.3459 30.2518,18.9709 C30.3218,18.4049 30.3578,17.8269 30.3578,17.2529 C30.3578,14.9879 29.7998,12.8549 28.8278,10.9669" id="Fill-1" fill="#51A0F2" mask="url(#mask-2)"></path>
                </g>
                <path d="M11.8209,14.9879 C12.3539,12.8569 14.2999,11.2849 16.5619,11.2849 C18.8249,11.2849 20.7699,12.8569 21.3029,14.9879 L11.8209,14.9879 Z M16.5619,9.7849 C13.2429,9.7849 10.4459,12.3749 10.1949,15.6809 C10.1789,15.8889 10.2509,16.0939 10.3929,16.2479 C10.5349,16.4009 10.7339,16.4879 10.9429,16.4879 L22.1809,16.4879 C22.3899,16.4879 22.5899,16.4009 22.7309,16.2479 C22.8739,16.0939 22.9449,15.8889 22.9289,15.6809 C22.6779,12.3749 19.8819,9.7849 16.5619,9.7849 Z" id="Fill-4" fill="#51A0F2"></path>
            </g>
        </g>
    </g>
</svg>