<?xml version="1.0" encoding="UTF-8"?>
<svg width="32px" height="32px" viewBox="0 0 32 32" version="1.1" xmlns="http://www.w3.org/2000/svg" xmlns:xlink="http://www.w3.org/1999/xlink">
    <!-- Generator: Sketch 49.3 (51167) - http://www.bohemiancoding.com/sketch -->
    <title>Page 1</title>
    <desc>Created with Sketch.</desc>
    <defs>
        <polygon id="path-1" points="0 0.000118617689 31.782 0.000118617689 31.782 31.5006 0 31.5006"></polygon>
    </defs>
    <g id="Page-1" stroke="none" stroke-width="1" fill="none" fill-rule="evenodd">
        <g id="Apple-TV-Copy" transform="translate(-872.000000, -365.000000)">
            <g id="Page-1" transform="translate(872.000000, 365.000000)">
                <mask id="mask-2" fill="white">
                    <use xlink:href="#path-1"></use>
                </mask>
                <g id="Clip-2"></g>
                <path d="M10.4736,1.7189 C10.4946,1.7349 11.3876,2.6419 10.3536,4.6049 C8.8966,6.7659 9.1846,9.5989 9.2796,10.5299 C9.2966,10.6969 9.2566,10.8659 9.1656,11.0079 C8.5656,11.9509 8.6986,13.2249 8.9946,14.0299 C9.2076,14.6099 9.5306,15.0589 9.9266,15.3299 C10.0746,15.4299 10.1816,15.5799 10.2286,15.7519 C10.6976,17.4689 11.6956,18.8399 12.2476,19.5029 C12.3836,19.6659 12.4446,19.8799 12.4136,20.0909 L12.3906,20.2379 C12.3366,20.5169 12.1306,20.7419 11.8576,20.8199 C9.0916,21.6009 1.4996,25.0529 1.4996,29.2639 L1.4996,30.0029 L30.2836,30.0009 L30.2826,29.2639 C30.2826,25.0569 22.6876,21.5999 19.9206,20.8169 C19.6406,20.7379 19.4316,20.5039 19.3846,20.2169 L19.3646,20.0879 C19.3336,19.8769 19.3946,19.6639 19.5306,19.4999 C20.0836,18.8379 21.0806,17.4689 21.5506,15.7489 C21.5976,15.5769 21.7046,15.4269 21.8526,15.3259 C22.2456,15.0589 22.5776,14.5969 22.7866,14.0279 C23.0816,13.2209 23.2146,11.9459 22.6146,11.0099 C22.5236,10.8659 22.4826,10.6969 22.4996,10.5279 C22.6086,9.4679 22.9396,6.2399 21.0346,4.1159 C20.1116,3.0839 18.7966,2.4609 17.1246,2.2619 C17.0716,2.2559 17.0186,2.2439 16.9676,2.2259 C16.4046,2.0299 13.4376,1.0829 10.4736,1.7189 Z M30.2856,30.0009 L30.2856,30.7509 L30.2856,30.0009 Z M30.2856,31.5009 L1.4976,31.5009 C0.6716,31.5009 -0.0004,30.8289 -0.0004,30.0029 L-0.0004,29.2639 C-0.0004,24.3139 7.2506,20.8439 10.4976,19.6849 C9.9306,18.8829 9.2616,17.7449 8.8536,16.3989 C8.3056,15.9529 7.8696,15.3189 7.5866,14.5479 C7.1756,13.4329 7.0236,11.7979 7.7626,10.4359 C7.6436,9.1819 7.4656,6.2049 9.0696,3.8349 C9.4366,3.1299 9.3536,2.7589 9.3256,2.6739 C9.0006,2.2769 8.8966,1.7679 9.0366,1.2919 C9.1936,0.7639 9.6236,0.3659 10.1606,0.2519 C13.3366,-0.4291 16.4036,0.4509 17.3826,0.7829 C19.3896,1.0369 20.9946,1.8209 22.1516,3.1149 C24.3586,5.5759 24.1536,9.0149 24.0166,10.4349 C24.7556,11.7909 24.6046,13.4259 24.1956,14.5439 C23.9126,15.3149 23.4766,15.9489 22.9246,16.3959 C22.5166,17.7439 21.8486,18.8809 21.2806,19.6829 C24.5286,20.8439 31.7826,24.3189 31.7826,29.2639 L31.7826,30.0029 C31.7826,30.8289 31.1106,31.5009 30.2856,31.5009 Z" id="Fill-1" fill="#51A0F2" mask="url(#mask-2)"></path>
            </g>
        </g>
    </g>
</svg>