<?xml version="1.0" encoding="UTF-8"?>
<svg width="32px" height="29px" viewBox="0 0 32 29" version="1.1" xmlns="http://www.w3.org/2000/svg" xmlns:xlink="http://www.w3.org/1999/xlink">
    <!-- Generator: Sketch 49.3 (51167) - http://www.bohemiancoding.com/sketch -->
    <title>Page 1</title>
    <desc>Created with Sketch.</desc>
    <defs></defs>
    <g id="Page-1" stroke="none" stroke-width="1" fill="none" fill-rule="evenodd">
        <g id="Apple-TV-Copy" transform="translate(-628.000000, -661.000000)" fill="#51A0F2">
            <path d="M658,687.9131 C658,688.0491 657.886,688.1631 657.75,688.1631 L652.383,688.1631 C652.247,688.1631 652.133,688.0491 652.133,687.9131 L652.133,682.5451 C652.133,682.4091 652.247,682.2951 652.383,682.2951 L657.75,682.2951 C657.886,682.2951 658,682.4091 658,682.5451 L658,687.9131 Z M646.685,682.5451 L646.685,687.9131 C646.685,688.0491 646.57,688.1631 646.435,688.1631 L641.066,688.1631 C640.931,688.1631 640.816,688.0491 640.816,687.9131 L640.816,682.5451 C640.816,682.4091 640.931,682.2951 641.066,682.2951 L646.435,682.2951 C646.57,682.2951 646.685,682.4091 646.685,682.5451 Z M635.368,682.5451 L635.368,687.9131 C635.368,688.0491 635.254,688.1631 635.118,688.1631 L629.75,688.1631 C629.614,688.1631 629.5,688.0491 629.5,687.9131 L629.5,682.5451 C629.5,682.4091 629.614,682.2951 629.75,682.2951 L635.118,682.2951 C635.254,682.2951 635.368,682.4091 635.368,682.5451 Z M640.816,668.1181 L640.816,662.7501 C640.816,662.6141 640.931,662.5001 641.066,662.5001 L646.435,662.5001 C646.57,662.5001 646.685,662.6141 646.685,662.7501 L646.685,668.1181 C646.685,668.2541 646.57,668.3681 646.435,668.3681 L641.066,668.3681 C640.931,668.3681 640.816,668.2541 640.816,668.1181 Z M657.75,680.795069 L655.816,680.795069 L655.816,675.156049 C655.816,674.742048 655.48,674.406047 655.066,674.406047 L644.5,674.406047 L644.5,669.868031 L646.435,669.868031 C647.399,669.868031 648.185,669.083028 648.185,668.118025 L648.185,662.750006 C648.185,661.785003 647.399,661 646.435,661 L641.066,661 C640.102,661 639.316,661.785003 639.316,662.750006 L639.316,668.118025 C639.316,669.083028 640.102,669.868031 641.066,669.868031 L643,669.868031 L643,674.406047 L632.435,674.406047 C632.021,674.406047 631.685,674.742048 631.685,675.156049 L631.685,680.795069 L629.75,680.795069 C628.785,680.795069 628,681.580072 628,682.545075 L628,687.913094 C628,688.878097 628.785,689.6631 629.75,689.6631 L635.118,689.6631 C636.083,689.6631 636.868,688.878097 636.868,687.913094 L636.868,682.545075 C636.868,681.580072 636.083,680.795069 635.118,680.795069 L633.185,680.795069 L633.185,675.906052 L643,675.906052 L643,680.795069 L641.066,680.795069 C640.102,680.795069 639.316,681.580072 639.316,682.545075 L639.316,687.913094 C639.316,688.878097 640.102,689.6631 641.066,689.6631 L646.435,689.6631 C647.399,689.6631 648.185,688.878097 648.185,687.913094 L648.185,682.545075 C648.185,681.580072 647.399,680.795069 646.435,680.795069 L644.5,680.795069 L644.5,675.906052 L654.316,675.906052 L654.316,680.795069 L652.383,680.795069 C651.418,680.795069 650.633,681.580072 650.633,682.545075 L650.633,687.913094 C650.633,688.878097 651.418,689.6631 652.383,689.6631 L657.75,689.6631 C658.715,689.6631 659.5,688.878097 659.5,687.913094 L659.5,682.545075 C659.5,681.580072 658.715,680.795069 657.75,680.795069 Z" id="Page-1"></path>
        </g>
    </g>
</svg>