<?xml version="1.0" encoding="UTF-8"?>
<svg width="30px" height="31px" viewBox="0 0 30 31" version="1.1" xmlns="http://www.w3.org/2000/svg" xmlns:xlink="http://www.w3.org/1999/xlink">
    <!-- Generator: Sketch 49.3 (51167) - http://www.bohemiancoding.com/sketch -->
    <title>Page 1</title>
    <desc>Created with Sketch.</desc>
    <defs>
        <polygon id="path-1" points="0.15884186 0.192824843 4.2 0.192824843 4.2 12.8963 0.15884186 12.8963"></polygon>
    </defs>
    <g id="Page-1" stroke="none" stroke-width="1" fill="none" fill-rule="evenodd">
        <g id="Apple-TV-Copy" transform="translate(-467.000000, -442.000000)">
            <g id="Page-1" transform="translate(467.000000, 442.000000)">
                <path d="M17.1504,29 L1.7504,29 C1.6124,29 1.5004,28.888 1.5004,28.75 L1.5004,23.975 L17.4004,23.975 L17.4004,28.75 C17.4004,28.888 17.2884,29 17.1504,29 Z M1.7504,1.5 L17.1504,1.5 C17.2884,1.5 17.4004,1.612 17.4004,1.75 L17.4004,4.108 L1.5004,4.108 L1.5004,1.75 C1.5004,1.612 1.6124,1.5 1.7504,1.5 Z M1.5004,22.474 L17.4004,22.474 L17.4004,5.608 L1.5004,5.608 L1.5004,22.474 Z M17.1504,0 L1.7504,0 C0.7854,0 0.0004,0.785 0.0004,1.75 L0.0004,28.75 C0.0004,29.715 0.7854,30.5 1.7504,30.5 L17.1504,30.5 C18.1154,30.5 18.9004,29.715 18.9004,28.75 L18.9004,1.75 C18.9004,0.785 18.1154,0 17.1504,0 Z" id="Fill-1" fill="#51A0F2"></path>
                <path d="M9.4502,25.9365 C8.8972,25.9365 8.4502,26.3845 8.4502,26.9365 C8.4502,27.4895 8.8972,27.9365 9.4502,27.9365 C10.0032,27.9365 10.4502,27.4895 10.4502,26.9365 C10.4502,26.3845 10.0032,25.9365 9.4502,25.9365" id="Fill-3" fill="#51A0F2"></path>
                <g id="Group-7" transform="translate(25.000000, 9.500000)">
                    <mask id="mask-2" fill="white">
                        <use xlink:href="#path-1"></use>
                    </mask>
                    <g id="Clip-6"></g>
                    <path d="M1.4307,0.4033 C1.1327,0.1163 0.6567,0.1233 0.3697,0.4213 C0.0817,0.7183 0.0897,1.1943 0.3877,1.4813 C1.9007,2.9433 2.7007,4.7093 2.7007,6.5883 C2.7007,8.4283 1.9297,10.1673 0.4707,11.6143 C0.1767,11.9063 0.1747,12.3813 0.4667,12.6743 C0.6137,12.8223 0.8057,12.8963 0.9987,12.8963 C1.1907,12.8963 1.3807,12.8243 1.5277,12.6783 C3.2507,10.9683 4.2007,8.8053 4.2007,6.5883 C4.2007,4.3253 3.2167,2.1293 1.4307,0.4033" id="Fill-5" fill="#51A0F2" mask="url(#mask-2)"></path>
                </g>
                <path d="M21.8926,11.7207 C21.6046,12.0187 21.6126,12.4927 21.9116,12.7807 C22.8896,13.7267 23.4076,14.8657 23.4076,16.0747 C23.4076,17.2577 22.9086,18.3787 21.9646,19.3157 C21.6706,19.6077 21.6686,20.0817 21.9606,20.3757 C22.1076,20.5237 22.2996,20.5977 22.4936,20.5977 C22.6846,20.5977 22.8746,20.5257 23.0216,20.3797 C24.2376,19.1727 24.9076,17.6437 24.9076,16.0747 C24.9076,14.4717 24.2126,12.9187 22.9526,11.7017 C22.6556,11.4147 22.1796,11.4207 21.8926,11.7207" id="Fill-8" fill="#51A0F2"></path>
            </g>
        </g>
    </g>
</svg>