<?xml version="1.0" encoding="UTF-8"?>
<svg width="32px" height="26px" viewBox="0 0 32 26" version="1.1" xmlns="http://www.w3.org/2000/svg" xmlns:xlink="http://www.w3.org/1999/xlink">
    <!-- Generator: Sketch 49.3 (51167) - http://www.bohemiancoding.com/sketch -->
    <title>Page 1</title>
    <desc>Created with Sketch.</desc>
    <defs>
        <polygon id="path-1" points="0 0.889 31.4998047 0.889 31.4998047 26 0 26"></polygon>
        <polygon id="path-3" points="0 26.1113 31.5 26.1113 31.5 1.0003 0 1.0003"></polygon>
    </defs>
    <g id="Page-1" stroke="none" stroke-width="1" fill="none" fill-rule="evenodd">
        <g id="Apple-TV-Copy" transform="translate(-738.000000, -608.000000)">
            <g id="Page-1" transform="translate(738.000000, 607.000000)">
                <path d="M7.6562,8.1123 C7.9102,7.3253 8.5742,5.7873 8.9162,5.1213 L22.6272,5.1213 C22.9662,5.7873 23.6112,7.3013 23.8712,8.1103 C23.9502,8.3603 24.1032,9.0113 24.1692,9.2943 C24.0502,9.7993 23.2892,10.3183 22.6302,10.3183 L8.8972,10.3183 C8.2382,10.3183 7.4762,9.7993 7.3572,9.2943 C7.4232,9.0113 7.5752,8.3623 7.6562,8.1123 M8.8972,11.8183 L22.6302,11.8183 C23.9802,11.8183 25.5642,10.7923 25.6782,9.3193 C25.6842,9.2443 25.6782,9.1693 25.6622,9.0943 C25.6622,9.0943 25.4122,8.0083 25.2992,7.6533 C25.0172,6.7733 24.0552,4.4383 23.6472,3.9123 C23.5062,3.7283 23.2872,3.6213 23.0542,3.6213 L8.4902,3.6213 C8.2602,3.6213 8.0432,3.7263 7.9012,3.9073 C7.4962,4.4213 6.5062,6.7933 6.2282,7.6513 C6.1142,8.0063 5.8642,9.0943 5.8642,9.0943 C5.8472,9.1693 5.8422,9.2443 5.8472,9.3203 C5.9642,10.7923 7.5482,11.8183 8.8972,11.8183" id="Fill-1" fill="#51A0F2"></path>
                <g id="Group-5" transform="translate(0.000000, 0.111300)">
                    <mask id="mask-2" fill="white">
                        <use xlink:href="#path-1"></use>
                    </mask>
                    <g id="Clip-4"></g>
                    <path d="M29.9678,10.0664 C29.9258,10.0664 29.8828,10.0704 29.8418,10.0774 L28.8018,10.2544 C28.5668,10.2954 28.3638,10.4454 28.2568,10.6584 C28.1508,10.8724 28.1518,11.1234 28.2598,11.3364 C28.5608,11.9234 28.7068,12.5594 28.7098,13.3464 L29.1018,17.7854 L29.1018,23.8544 C29.1018,24.2104 28.8118,24.5004 28.4548,24.5004 L26.3228,24.5004 C25.9668,24.5004 25.6768,24.2104 25.6768,23.8544 L25.6768,22.1124 C25.6768,21.6984 25.3408,21.3624 24.9268,21.3624 L6.5998,21.3624 C6.1858,21.3624 5.8498,21.6984 5.8498,22.1124 L5.8498,23.8544 C5.8498,24.2104 5.5598,24.5004 5.2028,24.5004 L3.0718,24.5004 C2.7158,24.5004 2.4258,24.2104 2.4258,23.8544 L2.4228,17.8504 L2.8198,13.2814 C2.8198,12.5604 2.9648,11.9254 3.2648,11.3404 C3.3728,11.1284 3.3738,10.8774 3.2678,10.6634 C3.1608,10.4504 2.9588,10.2994 2.7238,10.2594 L1.6598,10.0774 C1.6178,10.0704 1.5428,10.0344 1.4998,10.0344 L1.5328,9.3224 L4.3538,9.3304 C4.5488,9.4454 4.7848,9.4644 4.9968,9.3844 C5.2088,9.3044 5.3728,9.1334 5.4448,8.9194 L6.7388,4.9964 C7.0528,3.3634 8.2018,2.3884 9.8138,2.3884 L21.7138,2.3884 C22.6798,2.3884 24.3638,2.7274 24.7868,4.9944 C24.7928,5.0274 24.8018,5.0604 24.8128,5.0924 L26.0788,8.9084 C26.1498,9.1184 26.3138,9.2824 26.5198,9.3644 C26.7278,9.4464 26.9638,9.4274 27.1578,9.3224 L29.9678,9.3224 L29.9998,9.3554 L29.9678,10.0664 Z M31.0528,8.2724 C30.7638,7.9824 30.3778,7.8224 29.9678,7.8224 L27.2988,7.8224 L26.2518,4.6674 C25.7888,2.2994 24.0968,0.8884 21.7138,0.8884 L9.8138,0.8884 C7.4618,0.8884 5.7198,2.3544 5.2908,4.6184 L4.2278,7.8224 L1.5328,7.8224 C0.6878,7.8224 -0.0002,8.5094 -0.0002,9.3554 L-0.0002,10.0344 C-0.0002,10.8544 0.6478,11.5254 1.4588,11.5644 L1.5588,11.5824 C1.3998,12.1104 1.3208,12.6634 1.3218,13.2154 L0.9258,17.7854 L0.9258,23.8544 C0.9258,25.0374 1.8888,26.0004 3.0718,26.0004 L5.2028,26.0004 C6.3868,26.0004 7.3498,25.0374 7.3498,23.8544 L7.3498,22.8624 L24.1768,22.8624 L24.1768,23.8544 C24.1768,25.0374 25.1398,26.0004 26.3228,26.0004 L28.4548,26.0004 C29.6388,26.0004 30.6018,25.0374 30.6018,23.8544 L30.5988,17.7194 L30.2068,13.2814 C30.2068,12.6844 30.1258,12.1154 29.9658,11.5774 L30.0418,11.5644 C30.8528,11.5264 31.4998,10.8544 31.4998,10.0344 L31.4998,9.3574 C31.5008,8.9474 31.3418,8.5624 31.0528,8.2724 Z" id="Fill-3" fill="#51A0F2" mask="url(#mask-2)"></path>
                </g>
                <mask id="mask-4" fill="white">
                    <use xlink:href="#path-3"></use>
                </mask>
                <g id="Clip-7"></g>
                <path d="M12.965,17.9753 L18.655,17.9753 L18.655,16.4513 L12.965,16.4513 L12.965,17.9753 Z M18.776,14.9513 L12.844,14.9513 C12.083,14.9513 11.465,15.5693 11.465,16.3293 L11.465,18.0963 C11.465,18.8573 12.083,19.4753 12.844,19.4753 L18.776,19.4753 C19.537,19.4753 20.155,18.8573 20.155,18.0963 L20.155,16.3293 C20.155,15.5693 19.537,14.9513 18.776,14.9513 Z" id="Fill-6" fill="#51A0F2" mask="url(#mask-4)"></path>
                <path d="M7.5947,18.9062 C6.8427,18.9062 6.2307,18.2942 6.2307,17.5422 C6.2307,16.7902 6.8427,16.1772 7.5947,16.1772 C8.3467,16.1772 8.9587,16.7902 8.9587,17.5422 C8.9587,18.2942 8.3467,18.9062 7.5947,18.9062 M7.5947,14.6772 C6.0157,14.6772 4.7307,15.9632 4.7307,17.5422 C4.7307,19.1212 6.0157,20.4062 7.5947,20.4062 C9.1737,20.4062 10.4587,19.1212 10.4587,17.5422 C10.4587,15.9632 9.1737,14.6772 7.5947,14.6772" id="Fill-8" fill="#51A0F2" mask="url(#mask-4)"></path>
                <path d="M23.9316,18.9062 C23.1786,18.9062 22.5666,18.2942 22.5666,17.5422 C22.5666,16.7902 23.1786,16.1772 23.9316,16.1772 C24.6846,16.1772 25.2966,16.7902 25.2966,17.5422 C25.2966,18.2942 24.6846,18.9062 23.9316,18.9062 M23.9316,14.6772 C22.3516,14.6772 21.0666,15.9632 21.0666,17.5422 C21.0666,19.1212 22.3516,20.4062 23.9316,20.4062 C25.5116,20.4062 26.7966,19.1212 26.7966,17.5422 C26.7966,15.9632 25.5116,14.6772 23.9316,14.6772" id="Fill-9" fill="#51A0F2" mask="url(#mask-4)"></path>
            </g>
        </g>
    </g>
</svg>