<?xml version="1.0" encoding="UTF-8"?>
<svg width="28px" height="31px" viewBox="0 0 28 31" version="1.1" xmlns="http://www.w3.org/2000/svg" xmlns:xlink="http://www.w3.org/1999/xlink">
    <!-- Generator: Sketch 49.3 (51167) - http://www.bohemiancoding.com/sketch -->
    <title>Page 1</title>
    <desc>Created with Sketch.</desc>
    <defs></defs>
    <g id="Page-1" stroke="none" stroke-width="1" fill="none" fill-rule="evenodd" stroke-linecap="round" stroke-linejoin="round">
        <g id="Apple-TV-Copy" transform="translate(-361.000000, -459.000000)" stroke="#51A0F2" stroke-width="1.5">
            <path d="M387.582598,478.338458 C387.172449,476.006518 385.927673,474.363234 385.379613,473.731891 C385.362598,472.557861 385.009762,471.444727 384.389165,470.445324 C384.229762,464.836667 380.070956,460.342936 374.962897,460.342936 C369.854837,460.342936 365.696031,464.836667 365.536628,470.445324 C364.954539,471.381145 364.607971,472.418159 364.553345,473.511592 C363.884389,474.278159 362.293942,476.267115 362.077225,478.076965 C361.773643,480.615771 362.359315,482.812488 363.937225,482.967413 C365.012747,483.07398 365.303792,481.884727 365.303792,481.884727 L366.176031,483.266518 C366.176031,483.266518 363.539613,484.535473 364.118121,486.365025 C364.695733,488.194577 367.770061,489.015771 368.985285,488.941443 C370.199613,488.867115 372.970359,488.232189 373.804986,487.597264 L375.551255,487.597264 C375.551255,487.597264 378.245882,489.323831 380.978121,488.945921 C383.711255,488.56801 385.077822,487.261443 385.381404,486.588906 C385.684986,485.917264 385.305285,483.901443 383.635136,483.41607 L384.394539,482.034279 C384.394539,482.034279 385.191553,483.116965 386.064688,482.967413 C386.936927,482.818756 388.113643,481.362637 387.582598,478.338458 Z" id="Page-1"></path>
        </g>
    </g>
</svg>