<?xml version="1.0" encoding="UTF-8"?>
<svg width="32px" height="30px" viewBox="0 0 32 30" version="1.1" xmlns="http://www.w3.org/2000/svg" xmlns:xlink="http://www.w3.org/1999/xlink">
    <!-- Generator: Sketch 49.3 (51167) - http://www.bohemiancoding.com/sketch -->
    <title>Page 1</title>
    <desc>Created with Sketch.</desc>
    <defs>
        <polygon id="path-1" points="0 0.4735 31.4996 0.4735 31.4996 27 0 27"></polygon>
    </defs>
    <g id="Page-1" stroke="none" stroke-width="1" fill="none" fill-rule="evenodd">
        <g id="Apple-TV-Copy" transform="translate(-521.000000, -658.000000)">
            <g id="Page-1" transform="translate(521.625000, 658.000000)">
                <g id="Group-3" transform="translate(0.000000, 2.500100)">
                    <mask id="mask-2" fill="white">
                        <use xlink:href="#path-1"></use>
                    </mask>
                    <g id="Clip-2"></g>
                    <path d="M9.6816,21.4465 C9.7046,21.4485 9.7256,21.4605 9.7496,21.4605 L14.9996,21.4605 L14.9996,25.5005 L7.1896,25.5005 L9.6816,21.4465 Z M11.9996,5.6835 C11.9996,3.6375 13.6826,1.9735 15.7496,1.9735 C17.8176,1.9735 19.4996,3.6375 19.4996,5.6835 C19.4996,7.7295 17.8176,9.3945 15.7496,9.3945 C13.6826,9.3945 11.9996,7.7295 11.9996,5.6835 Z M21.7496,21.4605 C21.7746,21.4605 21.7946,21.4485 21.8186,21.4465 L24.3106,25.5005 L16.4996,25.5005 L16.4996,21.4605 L21.7496,21.4605 Z M16.4996,17.3375 L19.2496,17.3375 C19.2636,17.3375 19.2746,17.3305 19.2866,17.3295 L20.9046,19.9605 L16.4996,19.9605 L16.4996,17.3375 Z M14.9996,15.8375 L13.1306,15.8375 L14.9996,12.7965 L14.9996,15.8375 Z M16.4996,12.7965 L18.3696,15.8375 L16.4996,15.8375 L16.4996,12.7965 Z M12.2126,17.3295 C12.2256,17.3305 12.2366,17.3375 12.2496,17.3375 L14.9996,17.3375 L14.9996,19.9605 L10.5956,19.9605 L12.2126,17.3295 Z M30.7496,25.5005 L26.0706,25.5005 L16.9916,10.7315 C19.2856,10.1745 20.9996,8.1305 20.9996,5.6835 C20.9996,2.8105 18.6446,0.4735 15.7496,0.4735 C12.8556,0.4735 10.4996,2.8105 10.4996,5.6835 C10.4996,8.1305 12.2146,10.1745 14.5086,10.7315 L5.4296,25.5005 L0.7496,25.5005 C0.3356,25.5005 -0.0004,25.8365 -0.0004,26.2505 C-0.0004,26.6645 0.3356,27.0005 0.7496,27.0005 L30.7496,27.0005 C31.1636,27.0005 31.4996,26.6645 31.4996,26.2505 C31.4996,25.8365 31.1636,25.5005 30.7496,25.5005 Z" id="Fill-1" fill="#51A0F2" mask="url(#mask-2)"></path>
                </g>
                <path d="M5.5254,16.0755 C5.7184,16.0755 5.9114,16.0015 6.0574,15.8535 C6.3494,15.5595 6.3474,15.0845 6.0534,14.7935 C4.1124,12.8685 3.0874,10.5525 3.0874,8.0955 C3.0874,5.6245 4.1794,3.2075 6.1634,1.2895 C6.4614,1.0015 6.4684,0.5265 6.1804,0.2285 C5.8924,-0.0695 5.4194,-0.0765 5.1204,0.2115 C2.8414,2.4145 1.5874,5.2145 1.5874,8.0955 C1.5874,10.9205 2.7974,13.6775 4.9974,15.8575 C5.1434,16.0035 5.3344,16.0755 5.5254,16.0755" id="Fill-4" fill="#51A0F2"></path>
                <path d="M10.0859,13.7357 C10.2789,13.7357 10.4719,13.6617 10.6179,13.5137 C10.9099,13.2197 10.9079,12.7457 10.6139,12.4537 C9.3429,11.1917 8.6709,9.6787 8.6709,8.0767 C8.6709,6.4647 9.3869,4.8867 10.6869,3.6307 C10.9839,3.3417 10.9919,2.8677 10.7039,2.5697 C10.4179,2.2717 9.9419,2.2637 9.6439,2.5517 C8.0489,4.0927 7.1709,6.0547 7.1709,8.0767 C7.1709,10.0587 8.0189,11.9917 9.5579,13.5177 C9.7039,13.6637 9.8949,13.7357 10.0859,13.7357" id="Fill-6" fill="#51A0F2"></path>
                <path d="M28.4131,8.095 C28.4131,10.552 27.3881,12.868 25.4461,14.793 C25.1521,15.084 25.1501,15.56 25.4421,15.854 C25.5891,16.001 25.7811,16.075 25.9751,16.075 C26.1651,16.075 26.3561,16.003 26.5031,15.858 C28.7021,13.677 29.9131,10.92 29.9131,8.095 C29.9131,5.214 28.6581,2.414 26.3801,0.211 C26.0821,-0.077 25.6081,-0.069 25.3191,0.229 C25.0311,0.527 25.0391,1.001 25.3371,1.289 C27.3201,3.207 28.4131,5.624 28.4131,8.095" id="Fill-8" fill="#51A0F2"></path>
                <path d="M22.8291,8.0765 C22.8291,9.6795 22.1571,11.1915 20.8861,12.4535 C20.5921,12.7455 20.5901,13.2205 20.8821,13.5135 C21.0281,13.6615 21.2211,13.7355 21.4141,13.7355 C21.6051,13.7355 21.7961,13.6635 21.9421,13.5175 C23.4811,11.9915 24.3291,10.0585 24.3291,8.0765 C24.3291,6.0555 23.4511,4.0935 21.8561,2.5525 C21.5581,2.2645 21.0831,2.2715 20.7961,2.5695 C20.5081,2.8675 20.5161,3.3425 20.8131,3.6305 C22.1131,4.8875 22.8291,6.4655 22.8291,8.0765" id="Fill-10" fill="#51A0F2"></path>
            </g>
        </g>
    </g>
</svg>