<?xml version="1.0" encoding="UTF-8"?>
<svg width="32px" height="28px" viewBox="0 0 32 28" version="1.1" xmlns="http://www.w3.org/2000/svg" xmlns:xlink="http://www.w3.org/1999/xlink">
    <!-- Generator: Sketch 49.3 (51167) - http://www.bohemiancoding.com/sketch -->
    <title>Page 1</title>
    <desc>Created with Sketch.</desc>
    <defs>
        <polygon id="path-1" points="0 0.3654 31.5 0.3654 31.5 28 0 28"></polygon>
    </defs>
    <g id="Page-1" stroke="none" stroke-width="1" fill="none" fill-rule="evenodd">
        <g id="Apple-TV-Copy" transform="translate(-682.000000, -607.000000)">
            <g id="Page-1" transform="translate(682.000000, 606.000000)">
                <path d="M7.5332,12.8965 L9.1692,7.8845 L22.3312,7.8845 L23.9662,12.8965 L7.5332,12.8965 Z M25.6072,14.0865 C25.7482,13.8925 25.7872,13.6425 25.7132,13.4145 L23.5882,6.9025 C23.4872,6.5935 23.1992,6.3845 22.8752,6.3845 L8.6252,6.3845 C8.3012,6.3845 8.0122,6.5935 7.9122,6.9025 L5.7872,13.4145 C5.7132,13.6425 5.7522,13.8925 5.8922,14.0865 C6.0342,14.2815 6.2602,14.3965 6.5002,14.3965 L15.7502,14.3965 L15.7512,14.3965 L16.7502,14.3955 L25.0002,14.3965 C25.2402,14.3965 25.4662,14.2815 25.6072,14.0865 Z" id="Fill-1" fill="#51A0F2"></path>
                <g id="Group-5" transform="translate(0.000000, 0.634800)">
                    <mask id="mask-2" fill="white">
                        <use xlink:href="#path-1"></use>
                    </mask>
                    <g id="Clip-4"></g>
                    <path d="M30,21.4414 C30,22.0094 29.537,22.4724 28.969,22.4724 L2.531,22.4724 C1.963,22.4724 1.5,22.0094 1.5,21.4414 L1.5,14.7924 C1.5,14.1604 2.074,13.8124 2.608,13.7574 C2.748,13.7434 2.957,13.7384 3.181,13.7384 C3.553,13.7384 3.963,13.7524 4.153,13.7604 C4.503,13.7914 4.809,13.5554 4.906,13.2244 L7.278,5.2234 L13.096,5.2234 C13.51,5.2234 13.846,4.8874 13.846,4.4734 L13.846,1.8654 L17.653,1.8654 L17.653,4.4734 C17.653,4.8874 17.989,5.2234 18.403,5.2234 L24.222,5.2234 L26.594,13.2244 C26.691,13.5554 26.975,13.7854 27.347,13.7604 C27.65,13.7474 28.521,13.7174 28.892,13.7574 C29.426,13.8124 30,14.1604 30,14.7924 L30,21.4414 Z M27.375,24.9354 C27.375,25.7974 26.673,26.5004 25.811,26.5004 C24.948,26.5004 24.246,25.7974 24.246,24.9354 L24.246,23.9724 L27.375,23.9724 L27.375,24.9354 Z M7.5,24.9354 C7.5,25.7974 6.798,26.5004 5.936,26.5004 C5.073,26.5004 4.371,25.7974 4.371,24.9354 L4.371,23.9724 L7.5,23.9724 L7.5,24.9354 Z M29.046,12.2654 C28.737,12.2334 28.252,12.2344 27.867,12.2434 L25.5,4.2604 C25.406,3.9424 25.113,3.7234 24.781,3.7234 L19.153,3.7234 L19.153,1.1154 C19.153,0.7014 18.817,0.3654 18.403,0.3654 L13.096,0.3654 C12.682,0.3654 12.346,0.7014 12.346,1.1154 L12.346,3.7234 L6.719,3.7234 C6.387,3.7234 6.094,3.9424 6,4.2604 L3.633,12.2434 C3.249,12.2354 2.765,12.2344 2.454,12.2654 C1.032,12.4124 0,13.4744 0,14.7924 L0,21.4414 C0,22.8374 1.136,23.9724 2.531,23.9724 L2.871,23.9724 L2.871,24.9354 C2.871,26.6254 4.246,28.0004 5.936,28.0004 C7.625,28.0004 9,26.6254 9,24.9354 L9,23.9724 L22.746,23.9724 L22.746,24.9354 C22.746,26.6254 24.121,28.0004 25.811,28.0004 C27.5,28.0004 28.875,26.6254 28.875,24.9354 L28.875,23.9724 L28.969,23.9724 C30.364,23.9724 31.5,22.8374 31.5,21.4414 L31.5,14.7924 C31.5,13.4744 30.468,12.4124 29.046,12.2654 Z" id="Fill-3" fill="#51A0F2" mask="url(#mask-2)"></path>
                </g>
                <path d="M25.3516,19.5703 C24.6766,19.5703 24.1266,19.0203 24.1266,18.3453 C24.1266,17.6713 24.6766,17.1213 25.3516,17.1213 C26.0266,17.1213 26.5766,17.6713 26.5766,18.3453 C26.5766,19.0203 26.0266,19.5703 25.3516,19.5703 M25.3516,15.6213 C23.8496,15.6213 22.6266,16.8433 22.6266,18.3453 C22.6266,19.8473 23.8496,21.0703 25.3516,21.0703 C26.8536,21.0703 28.0766,19.8473 28.0766,18.3453 C28.0766,16.8433 26.8536,15.6213 25.3516,15.6213" id="Fill-6" fill="#51A0F2"></path>
                <path d="M6.5,19.5703 C5.825,19.5703 5.275,19.0203 5.275,18.3453 C5.275,17.6713 5.825,17.1213 6.5,17.1213 C7.175,17.1213 7.725,17.6713 7.725,18.3453 C7.725,19.0203 7.175,19.5703 6.5,19.5703 M6.5,15.6213 C4.998,15.6213 3.775,16.8433 3.775,18.3453 C3.775,19.8473 4.998,21.0703 6.5,21.0703 C8.002,21.0703 9.225,19.8473 9.225,18.3453 C9.225,16.8433 8.002,15.6213 6.5,15.6213" id="Fill-8" fill="#51A0F2"></path>
            </g>
        </g>
    </g>
</svg>