<?xml version="1.0" encoding="UTF-8"?>
<svg width="32px" height="32px" viewBox="0 0 32 32" version="1.1" xmlns="http://www.w3.org/2000/svg" xmlns:xlink="http://www.w3.org/1999/xlink">
    <!-- Generator: Sketch 49.3 (51167) - http://www.bohemiancoding.com/sketch -->
    <title>Page 1</title>
    <desc>Created with Sketch.</desc>
    <defs>
        <polygon id="path-1" points="0 0.5 31.4997 0.5 31.4997 9.826 0 9.826"></polygon>
    </defs>
    <g id="Page-1" stroke="none" stroke-width="1" fill="none" fill-rule="evenodd">
        <g id="Apple-TV-Copy" transform="translate(-522.000000, -442.000000)">
            <g id="Page-1" transform="translate(522.000000, 441.000000)">
                <path d="M15.7497,27.375 C12.5787,27.375 9.9997,24.796 9.9997,21.625 C9.9997,18.454 12.5787,15.875 15.7497,15.875 C18.9207,15.875 21.4997,18.454 21.4997,21.625 C21.4997,24.796 18.9207,27.375 15.7497,27.375 M15.7497,14.375 C11.7517,14.375 8.4997,17.627 8.4997,21.625 C8.4997,25.623 11.7517,28.875 15.7497,28.875 C19.7477,28.875 22.9997,25.623 22.9997,21.625 C22.9997,17.627 19.7477,14.375 15.7497,14.375" id="Fill-1" fill="#51A0F2"></path>
                <path d="M11.7497,20.875 C11.3357,20.875 10.9997,21.211 10.9997,21.625 C10.9997,22.039 11.3357,22.375 11.7497,22.375 C12.1637,22.375 12.4997,22.039 12.4997,21.625 C12.4997,21.211 12.1637,20.875 11.7497,20.875" id="Fill-3" fill="#51A0F2"></path>
                <path d="M18.9997,21.625 C18.9997,22.039 19.3357,22.375 19.7497,22.375 C20.1637,22.375 20.4997,22.039 20.4997,21.625 C20.4997,21.211 20.1637,20.875 19.7497,20.875 C19.3357,20.875 18.9997,21.211 18.9997,21.625" id="Fill-5" fill="#51A0F2"></path>
                <path d="M15.7497,16.875 C15.3357,16.875 14.9997,17.211 14.9997,17.625 C14.9997,18.039 15.3357,18.375 15.7497,18.375 C16.1637,18.375 16.4997,18.039 16.4997,17.625 C16.4997,17.211 16.1637,16.875 15.7497,16.875" id="Fill-7" fill="#51A0F2"></path>
                <path d="M15.7497,24.875 C15.3357,24.875 14.9997,25.211 14.9997,25.625 C14.9997,26.039 15.3357,26.375 15.7497,26.375 C16.1637,26.375 16.4997,26.039 16.4997,25.625 C16.4997,25.211 16.1637,24.875 15.7497,24.875" id="Fill-9" fill="#51A0F2"></path>
                <path d="M28.3102,30.9199 C28.2772,30.9559 28.2202,30.9999 28.1392,30.9999 L3.3602,30.9999 C3.2792,30.9999 3.2222,30.9559 3.1892,30.9199 C3.1302,30.8559 3.1032,30.7659 3.1122,30.6729 L4.9012,12.9339 C4.9152,12.7849 5.0232,12.6739 5.1502,12.6739 L26.3492,12.6739 C26.4762,12.6739 26.5832,12.7849 26.5982,12.9339 L28.3872,30.6729 C28.3962,30.7659 28.3692,30.8559 28.3102,30.9199 M26.3492,11.1739 L22.4992,11.1739 L22.4992,9.6249 C22.4992,9.2109 22.1642,8.8749 21.7492,8.8749 C21.3352,8.8749 20.9992,9.2109 20.9992,9.6249 L20.9992,11.1739 L10.4992,11.1739 L10.4992,9.6249 C10.4992,9.2109 10.1642,8.8749 9.7492,8.8749 C9.3352,8.8749 8.9992,9.2109 8.9992,9.6249 L8.9992,11.1739 L5.1502,11.1739 C4.2492,11.1739 3.5012,11.8649 3.4092,12.7829 L1.6202,30.5229 C1.5682,31.0349 1.7342,31.5469 2.0762,31.9259 C2.4062,32.2909 2.8732,32.4999 3.3602,32.4999 L28.1392,32.4999 C28.6252,32.4999 29.0932,32.2909 29.4232,31.9259 C29.7652,31.5469 29.9312,31.0349 29.8792,30.5229 L28.0902,12.7829 C27.9982,11.8649 27.2492,11.1739 26.3492,11.1739" id="Fill-11" fill="#51A0F2"></path>
                <g id="Group-15" transform="translate(0.000000, 0.500000)">
                    <mask id="mask-2" fill="white">
                        <use xlink:href="#path-1"></use>
                    </mask>
                    <g id="Clip-14"></g>
                    <path d="M29.9997,7.958 C29.9997,8.161 29.8547,8.326 29.6787,8.326 L27.3977,8.326 C26.6557,6.324 24.8047,4.972 22.7137,4.972 L8.7857,4.972 C6.6947,4.972 4.8437,6.324 4.1017,8.326 L1.8207,8.326 C1.6447,8.326 1.4997,8.161 1.4997,7.958 L1.4997,2.368 C1.4997,2.165 1.6447,2 1.8207,2 L29.6787,2 C29.8547,2 29.9997,2.165 29.9997,2.368 L29.9997,7.958 Z M29.6787,0.5 L1.8207,0.5 C0.8167,0.5 -0.0003,1.338 -0.0003,2.368 L-0.0003,7.958 C-0.0003,8.988 0.8167,9.826 1.8207,9.826 L5.2377,9.826 L5.3807,9.259 C5.7917,7.618 7.1917,6.472 8.7857,6.472 L22.7137,6.472 C24.3077,6.472 25.7077,7.618 26.1187,9.259 L26.2617,9.826 L29.6787,9.826 C30.6827,9.826 31.4997,8.988 31.4997,7.958 L31.4997,2.368 C31.4997,1.338 30.6827,0.5 29.6787,0.5 Z" id="Fill-13" fill="#51A0F2" mask="url(#mask-2)"></path>
                </g>
            </g>
        </g>
    </g>
</svg>