<?xml version="1.0" encoding="UTF-8"?>
<svg width="26px" height="32px" viewBox="0 0 26 32" version="1.1" xmlns="http://www.w3.org/2000/svg" xmlns:xlink="http://www.w3.org/1999/xlink">
    <!-- Generator: Sketch 49.3 (51167) - http://www.bohemiancoding.com/sketch -->
    <title>Page 1</title>
    <desc>Created with Sketch.</desc>
    <defs>
        <polygon id="path-1" points="0 31.5 25.5 31.5 25.5 0 0 0"></polygon>
    </defs>
    <g id="Page-1" stroke="none" stroke-width="1" fill="none" fill-rule="evenodd">
        <g id="Apple-TV-Copy" transform="translate(-522.000000, -605.000000)">
            <g id="Page-1" transform="translate(522.000000, 605.000000)">
                <path d="M12.627,20.2949 C11.835,20.2949 11.191,19.6499 11.191,18.8579 C11.191,18.0659 11.835,17.4219 12.627,17.4219 C13.419,17.4219 14.064,18.0659 14.064,18.8579 C14.064,19.6499 13.419,20.2949 12.627,20.2949 M12.627,15.9219 C11.008,15.9219 9.691,17.2389 9.691,18.8579 C9.691,20.4779 11.008,21.7949 12.627,21.7949 C14.246,21.7949 15.564,20.4779 15.564,18.8579 C15.564,17.2389 14.246,15.9219 12.627,15.9219" id="Fill-1" fill="#51A0F2"></path>
                <mask id="mask-2" fill="white">
                    <use xlink:href="#path-1"></use>
                </mask>
                <g id="Clip-4"></g>
                <path d="M1.5,25.862 L24,25.862 L24,24.582 L1.5,24.582 L1.5,25.862 Z M18.067,27.479 L19.404,28.448 L6.011,28.448 L7.349,27.479 C7.393,27.446 7.42,27.401 7.455,27.362 L17.96,27.362 C17.995,27.401 18.022,27.446 18.067,27.479 Z M12.75,1.5 C18.953,1.5 24,5.265 24,9.893 L24,23.082 L1.5,23.082 L1.5,9.893 C1.5,5.265 6.547,1.5 12.75,1.5 Z M12.75,0 C5.72,0 0,4.438 0,9.893 L0,26.612 C0,27.026 0.336,27.362 0.75,27.362 L4.952,27.362 L1.118,30.143 C0.783,30.386 0.708,30.854 0.951,31.19 C1.098,31.393 1.327,31.5 1.56,31.5 C1.712,31.5 1.866,31.454 1.999,31.357 L4.006,29.902 C4.079,29.926 4.152,29.948 4.233,29.948 L21.183,29.948 C21.264,29.948 21.337,29.926 21.41,29.902 L23.417,31.357 C23.55,31.454 23.704,31.5 23.856,31.5 C24.089,31.5 24.318,31.393 24.465,31.19 C24.708,30.854 24.633,30.386 24.298,30.143 L20.464,27.362 L24.75,27.362 C25.164,27.362 25.5,27.026 25.5,26.612 L25.5,9.893 C25.5,4.438 19.78,0 12.75,0 Z" id="Fill-3" fill="#51A0F2" mask="url(#mask-2)"></path>
                <path d="M5.239,11.832 L11.935,11.832 L11.935,8.741 L5.239,8.741 L5.239,11.832 Z M13.436,11.832 L20.433,11.832 L20.433,8.741 L13.436,8.741 L13.436,11.832 Z M4.489,13.332 L21.183,13.332 C21.597,13.332 21.933,12.996 21.933,12.582 L21.933,7.991 C21.933,7.577 21.597,7.241 21.183,7.241 L4.489,7.241 C4.075,7.241 3.739,7.577 3.739,7.991 L3.739,12.582 C3.739,12.996 4.075,13.332 4.489,13.332 Z" id="Fill-5" fill="#51A0F2" mask="url(#mask-2)"></path>
                <path d="M9.6455,5.5635 L15.2555,5.5635 C15.6695,5.5635 16.0055,5.2275 16.0055,4.8135 C16.0055,4.3995 15.6695,4.0635 15.2555,4.0635 L9.6455,4.0635 C9.2315,4.0635 8.8955,4.3995 8.8955,4.8135 C8.8955,5.2275 9.2315,5.5635 9.6455,5.5635" id="Fill-6" fill="#51A0F2" mask="url(#mask-2)"></path>
            </g>
        </g>
    </g>
</svg>