<?xml version="1.0" encoding="UTF-8"?>
<svg width="32px" height="26px" viewBox="0 0 32 26" version="1.1" xmlns="http://www.w3.org/2000/svg" xmlns:xlink="http://www.w3.org/1999/xlink">
    <!-- Generator: Sketch 49.3 (51167) - http://www.bohemiancoding.com/sketch -->
    <title>Page 1</title>
    <desc>Created with Sketch.</desc>
    <defs></defs>
    <g id="Page-1" stroke="none" stroke-width="1" fill="none" fill-rule="evenodd">
        <g id="Apple-TV-Copy" transform="translate(-314.000000, -464.000000)">
            <g id="Page-1" transform="translate(315.000000, 465.000000)">
                <path d="M26.5639091,21.7146364 C26.203,21.9500909 27.0639091,24.1137273 27.0639091,24.1137273 C27.0639091,24.1137273 24.6384545,22.6773636 24.2266364,22.8046364 C23.2566364,23.1064545 22.203,23.2719091 21.1011818,23.2719091 C16.313,23.2719091 12.4302727,20.1500909 12.4302727,16.301 C12.4302727,12.451 16.313,9.33009091 21.1011818,9.33009091 C25.8902727,9.33009091 29.7720909,12.451 29.7720909,16.301 C29.7720909,18.4864545 28.5211818,20.4373636 26.5639091,21.7146364 Z" id="Stroke-1" stroke="#51A0F2" stroke-width="1.5" stroke-linecap="round" stroke-linejoin="round"></path>
                <path d="M18.0802727,12.6077273 C17.4657273,12.6077273 16.9675455,13.0968182 16.9675455,13.7013636 C16.9675455,14.305 17.4657273,14.7940909 18.0802727,14.7940909 C18.6957273,14.7940909 19.1939091,14.305 19.1939091,13.7013636 C19.1939091,13.0968182 18.6957273,12.6077273 18.0802727,12.6077273" id="Fill-3" fill="#51A0F2"></path>
                <path d="M24.2494545,12.6077273 C23.6349091,12.6077273 23.1358182,13.0968182 23.1358182,13.7013636 C23.1358182,14.305 23.6349091,14.7940909 24.2494545,14.7940909 C24.864,14.7940909 25.3621818,14.305 25.3621818,13.7013636 C25.3621818,13.0968182 24.864,12.6077273 24.2494545,12.6077273" id="Fill-5" fill="#51A0F2"></path>
                <path d="M10.3143636,14.9061818 C10.3143636,15.7416364 10.4843636,16.5452727 10.7961818,17.2952727 C9.56436364,17.2734545 8.38345455,17.0852727 7.29436364,16.7470909 C6.80345455,16.5943636 3.91163636,18.308 3.91163636,18.308 C3.91163636,18.308 4.938,15.7289091 4.508,15.448 C2.17345455,13.9243636 0.681636364,11.598 0.681636364,8.99254545 C0.681636364,4.40254545 5.31072727,0.682545455 11.0207273,0.682545455 C16.0825455,0.682545455 20.288,3.60890909 21.1789091,7.47072727 C20.6934545,7.40890909 20.198,7.36890909 19.6907273,7.36890909 C14.5125455,7.36890909 10.3143636,10.7434545 10.3143636,14.9061818 Z" id="Stroke-7" stroke="#51A0F2" stroke-width="1.5" stroke-linecap="round" stroke-linejoin="round"></path>
                <path d="M7.15290909,4.868 C6.46927273,4.868 5.91472727,5.41254545 5.91472727,6.08436364 C5.91472727,6.75618182 6.46927273,7.30163636 7.15290909,7.30163636 C7.83654545,7.30163636 8.39109091,6.75618182 8.39109091,6.08436364 C8.39109091,5.41254545 7.83654545,4.868 7.15290909,4.868" id="Fill-9" fill="#51A0F2"></path>
                <path d="M12.8582727,4.868 C12.1746364,4.868 11.6200909,5.41254545 11.6200909,6.08436364 C11.6200909,6.75618182 12.1746364,7.30163636 12.8582727,7.30163636 C13.5419091,7.30163636 14.0964545,6.75618182 14.0964545,6.08436364 C14.0964545,5.41254545 13.5419091,4.868 12.8582727,4.868" id="Fill-11" fill="#51A0F2"></path>
            </g>
        </g>
    </g>
</svg>