<?xml version="1.0" encoding="UTF-8"?>
<svg width="31px" height="32px" viewBox="0 0 31 32" version="1.1" xmlns="http://www.w3.org/2000/svg" xmlns:xlink="http://www.w3.org/1999/xlink">
    <!-- Generator: Sketch 49.3 (51167) - http://www.bohemiancoding.com/sketch -->
    <title>Page 1</title>
    <desc>Created with Sketch.</desc>
    <defs>
        <polygon id="path-1" points="0.000413948648 0.0005 30.651 0.0005 30.651 31.5005 0.000413948648 31.5005"></polygon>
    </defs>
    <g id="Page-1" stroke="none" stroke-width="1" fill="none" fill-rule="evenodd">
        <g id="Apple-TV-Copy" transform="translate(-740.000000, -353.000000)">
            <g id="Page-1" transform="translate(740.000000, 353.000000)">
                <mask id="mask-2" fill="white">
                    <use xlink:href="#path-1"></use>
                </mask>
                <g id="Clip-2"></g>
                <path d="M1.5663,30.0005 L29.0713,30.0005 C28.5093,26.3475 25.5483,25.1535 22.9163,24.0915 C21.0883,23.3545 19.5103,22.7185 18.9373,21.3485 C18.8543,21.1505 18.8603,20.9275 18.9523,20.7345 C19.0453,20.5415 19.2153,20.3975 19.4203,20.3375 C19.7723,20.2365 20.1913,20.1695 20.6763,20.0935 C21.9493,19.8915 23.5043,19.6445 24.1233,18.7015 L24.0863,18.6335 C23.5033,17.5585 23.4233,17.3515 23.3093,15.5385 C23.3053,15.2695 23.3203,14.9125 23.3383,14.4605 C23.4463,11.8905 23.6973,5.8715 21.2443,3.4095 C20.4893,2.6525 19.5433,2.3015 18.3493,2.3515 C18.1633,2.3625 17.9863,2.2975 17.8433,2.1805 C17.7513,2.1065 15.3953,0.3175 11.0713,2.8345 C7.8763,4.8265 7.6423,10.0815 7.4723,13.9195 C7.3683,16.2825 7.2973,17.8815 6.6003,18.5795 C6.8223,19.0525 7.8473,19.9505 11.0783,20.4415 C11.3213,20.4785 11.5303,20.6315 11.6383,20.8515 C11.7473,21.0705 11.7413,21.3305 11.6233,21.5445 C10.8583,22.9335 9.2163,23.5415 7.4783,24.1845 C4.8123,25.1715 2.0603,26.1895 1.5663,30.0005 M29.9013,31.5005 L0.7503,31.5005 C0.5453,31.5005 0.3493,31.4175 0.2083,31.2685 C0.0663,31.1205 -0.0087,30.9215 0.0013,30.7165 C0.2473,25.2615 4.1263,23.8265 6.9583,22.7775 C7.9313,22.4175 8.8213,22.0875 9.4673,21.6655 C7.4373,21.2045 6.0883,20.4885 5.4503,19.5315 C4.9413,18.7715 5.0643,18.1315 5.0933,18.0115 C5.1523,17.7735 5.3233,17.5815 5.5483,17.4925 C5.8303,17.1005 5.9133,15.2285 5.9743,13.8535 C6.1593,9.6825 6.4123,3.9705 10.2973,1.5495 C14.8073,-1.0765 17.7113,0.3125 18.5493,0.8475 L18.5523,0.8475 C20.0503,0.8475 21.3123,1.3525 22.3063,2.3515 C25.2233,5.2775 24.9533,11.7565 24.8373,14.5225 C24.8203,14.9405 24.8063,15.2695 24.8083,15.4825 C24.9043,16.9965 24.9143,17.0145 25.4043,17.9175 L25.6313,18.3385 C25.7353,18.5335 25.7483,18.7635 25.6673,18.9685 C24.9033,20.8885 22.6283,21.3005 21.0503,21.5525 C21.6623,21.9685 22.5533,22.3285 23.4763,22.7005 C26.3833,23.8735 30.3653,25.4795 30.6503,30.7095 C30.6613,30.9155 30.5873,31.1165 30.4463,31.2665 C30.3043,31.4155 30.1073,31.5005 29.9013,31.5005" id="Fill-1" fill="#51A0F2" mask="url(#mask-2)"></path>
            </g>
        </g>
    </g>
</svg>